solid vcg
  facet normal -1.000000e+00  0.000000e+00  0.000000e+00
    outer loop
      vertex  -7.500000e-01 -7.500000e-01  7.500000e-01
      vertex  -7.500000e-01  7.500000e-01  7.500000e-01
      vertex  -7.500000e-01 -7.500000e-01 -7.500000e-01
    endloop
  endfacet
  facet normal -1.000000e+00  0.000000e+00  0.000000e+00
    outer loop
      vertex  -7.500000e-01 -7.500000e-01 -7.500000e-01
      vertex  -7.500000e-01  7.500000e-01  7.500000e-01
      vertex  -7.500000e-01  7.500000e-01 -7.500000e-01
    endloop
  endfacet
  facet normal -0.000000e+00 -1.000000e+00 -0.000000e+00
    outer loop
      vertex   7.500000e-01 -7.500000e-01  7.500000e-01
      vertex  -7.500000e-01 -7.500000e-01  7.500000e-01
      vertex   7.500000e-01 -7.500000e-01 -7.500000e-01
    endloop
  endfacet
  facet normal  0.000000e+00 -1.000000e+00  0.000000e+00
    outer loop
      vertex   7.500000e-01 -7.500000e-01 -7.500000e-01
      vertex  -7.500000e-01 -7.500000e-01  7.500000e-01
      vertex  -7.500000e-01 -7.500000e-01 -7.500000e-01
    endloop
  endfacet
  facet normal  1.000000e+00  0.000000e+00  0.000000e+00
    outer loop
      vertex   7.500000e-01  7.500000e-01  7.500000e-01
      vertex   7.500000e-01 -7.500000e-01  7.500000e-01
      vertex   7.500000e-01  7.500000e-01 -7.500000e-01
    endloop
  endfacet
  facet normal  1.000000e+00  0.000000e+00  0.000000e+00
    outer loop
      vertex   7.500000e-01  7.500000e-01 -7.500000e-01
      vertex   7.500000e-01 -7.500000e-01  7.500000e-01
      vertex   7.500000e-01 -7.500000e-01 -7.500000e-01
    endloop
  endfacet
  facet normal -0.000000e+00  1.000000e+00  0.000000e+00
    outer loop
      vertex  -7.500000e-01  7.500000e-01  7.500000e-01
      vertex   7.500000e-01  7.500000e-01  7.500000e-01
      vertex  -7.500000e-01  7.500000e-01 -7.500000e-01
    endloop
  endfacet
  facet normal  0.000000e+00  1.000000e+00  0.000000e+00
    outer loop
      vertex  -7.500000e-01  7.500000e-01 -7.500000e-01
      vertex   7.500000e-01  7.500000e-01  7.500000e-01
      vertex   7.500000e-01  7.500000e-01 -7.500000e-01
    endloop
  endfacet
  facet normal  0.000000e+00 -0.000000e+00  1.000000e+00
    outer loop
      vertex   7.500000e-01 -7.500000e-01  7.500000e-01
      vertex   7.500000e-01  7.500000e-01  7.500000e-01
      vertex  -7.500000e-01 -7.500000e-01  7.500000e-01
    endloop
  endfacet
  facet normal  0.000000e+00  0.000000e+00  1.000000e+00
    outer loop
      vertex  -7.500000e-01 -7.500000e-01  7.500000e-01
      vertex   7.500000e-01  7.500000e-01  7.500000e-01
      vertex  -7.500000e-01  7.500000e-01  7.500000e-01
    endloop
  endfacet
  facet normal -0.000000e+00 -0.000000e+00 -1.000000e+00
    outer loop
      vertex   7.500000e-01  7.500000e-01 -7.500000e-01
      vertex   7.500000e-01 -7.500000e-01 -7.500000e-01
      vertex  -7.500000e-01  7.500000e-01 -7.500000e-01
    endloop
  endfacet
  facet normal  0.000000e+00  0.000000e+00 -1.000000e+00
    outer loop
      vertex  -7.500000e-01  7.500000e-01 -7.500000e-01
      vertex   7.500000e-01 -7.500000e-01 -7.500000e-01
      vertex  -7.500000e-01 -7.500000e-01 -7.500000e-01
    endloop
  endfacet
  facet normal -9.988896e-01  4.711160e-02  0.000000e+00
    outer loop
      vertex  -2.891567e-20  4.406198e-19 -5.000000e-01
      vertex  -2.891567e-20  4.406198e-19  5.000000e-01
      vertex   2.708756e-05  5.743274e-04  5.000000e-01
    endloop
  endfacet
  facet normal -9.988896e-01  4.711160e-02  0.000000e+00
    outer loop
      vertex  -2.891567e-20  4.406198e-19 -5.000000e-01
      vertex   2.708756e-05  5.743274e-04  5.000000e-01
      vertex   2.708756e-05  5.743274e-04 -5.000000e-01
    endloop
  endfacet
  facet normal -9.898610e-01  1.420392e-01  0.000000e+00
    outer loop
      vertex   2.708756e-05  5.743274e-04 -5.000000e-01
      vertex   2.708756e-05  5.743274e-04  5.000000e-01
      vertex   1.087322e-04  1.143303e-03  5.000000e-01
    endloop
  endfacet
  facet normal -9.898610e-01  1.420392e-01  0.000000e+00
    outer loop
      vertex   2.708756e-05  5.743274e-04 -5.000000e-01
      vertex   1.087322e-04  1.143303e-03  5.000000e-01
      vertex   1.087322e-04  1.143303e-03 -5.000000e-01
    endloop
  endfacet
  facet normal -9.719707e-01  2.351023e-01  0.000000e+00
    outer loop
      vertex   1.087322e-04  1.143303e-03 -5.000000e-01
      vertex   1.087322e-04  1.143303e-03  5.000000e-01
      vertex   2.440183e-04  1.702609e-03  5.000000e-01
    endloop
  endfacet
  facet normal -9.719707e-01  2.351023e-01  0.000000e+00
    outer loop
      vertex   1.087322e-04  1.143303e-03 -5.000000e-01
      vertex   2.440183e-04  1.702609e-03  5.000000e-01
      vertex   2.440183e-04  1.702609e-03 -5.000000e-01
    endloop
  endfacet
  facet normal -9.459903e-01  3.241949e-01  0.000000e+00
    outer loop
      vertex   2.440183e-04  1.702609e-03 -5.000000e-01
      vertex   2.440183e-04  1.702609e-03  5.000000e-01
      vertex   4.331715e-04  2.254552e-03  5.000000e-01
    endloop
  endfacet
  facet normal -9.459903e-01  3.241949e-01  0.000000e+00
    outer loop
      vertex   2.440183e-04  1.702609e-03 -5.000000e-01
      vertex   4.331715e-04  2.254552e-03  5.000000e-01
      vertex   4.331715e-04  2.254552e-03 -5.000000e-01
    endloop
  endfacet
  facet normal -9.128676e-01  4.082558e-01  0.000000e+00
    outer loop
      vertex   4.331715e-04  2.254552e-03 -5.000000e-01
      vertex   4.331715e-04  2.254552e-03  5.000000e-01
      vertex   6.819355e-04  2.810793e-03  5.000000e-01
    endloop
  endfacet
  facet normal -9.128676e-01  4.082558e-01  0.000000e+00
    outer loop
      vertex   4.331715e-04  2.254552e-03 -5.000000e-01
      vertex   6.819355e-04  2.810793e-03  5.000000e-01
      vertex   6.819355e-04  2.810793e-03 -5.000000e-01
    endloop
  endfacet
  facet normal -8.732642e-01  4.872470e-01  0.000000e+00
    outer loop
      vertex   6.819355e-04  2.810793e-03 -5.000000e-01
      vertex   6.819355e-04  2.810793e-03  5.000000e-01
      vertex   9.991417e-04  3.379303e-03  5.000000e-01
    endloop
  endfacet
  facet normal -8.732642e-01  4.872470e-01  0.000000e+00
    outer loop
      vertex   6.819355e-04  2.810793e-03 -5.000000e-01
      vertex   9.991417e-04  3.379303e-03  5.000000e-01
      vertex   9.991417e-04  3.379303e-03 -5.000000e-01
    endloop
  endfacet
  facet normal -8.279511e-01  5.608004e-01  0.000000e+00
    outer loop
      vertex   9.991417e-04  3.379303e-03 -5.000000e-01
      vertex   9.991417e-04  3.379303e-03  5.000000e-01
      vertex   1.397895e-03  3.968012e-03  5.000000e-01
    endloop
  endfacet
  facet normal -8.279511e-01  5.608004e-01  0.000000e+00
    outer loop
      vertex   9.991417e-04  3.379303e-03 -5.000000e-01
      vertex   1.397895e-03  3.968012e-03  5.000000e-01
      vertex   1.397895e-03  3.968012e-03 -5.000000e-01
    endloop
  endfacet
  facet normal -7.776126e-01  6.287436e-01  0.000000e+00
    outer loop
      vertex   1.397895e-03  3.968012e-03 -5.000000e-01
      vertex   1.397895e-03  3.968012e-03  5.000000e-01
      vertex   1.897142e-03  4.585467e-03  5.000000e-01
    endloop
  endfacet
  facet normal -7.776126e-01  6.287436e-01  0.000000e+00
    outer loop
      vertex   1.397895e-03  3.968012e-03 -5.000000e-01
      vertex   1.897142e-03  4.585467e-03  5.000000e-01
      vertex   1.897142e-03  4.585467e-03 -5.000000e-01
    endloop
  endfacet
  facet normal -7.229365e-01  6.909145e-01  0.000000e+00
    outer loop
      vertex   1.897142e-03  4.585467e-03 -5.000000e-01
      vertex   1.897142e-03  4.585467e-03  5.000000e-01
      vertex   2.522662e-03  5.239978e-03  5.000000e-01
    endloop
  endfacet
  facet normal -7.229365e-01  6.909145e-01  0.000000e+00
    outer loop
      vertex   1.897142e-03  4.585467e-03 -5.000000e-01
      vertex   2.522662e-03  5.239978e-03  5.000000e-01
      vertex   2.522662e-03  5.239978e-03 -5.000000e-01
    endloop
  endfacet
  facet normal -6.591708e-01  7.519932e-01  0.000000e+00
    outer loop
      vertex   2.522662e-03  5.239978e-03 -5.000000e-01
      vertex   2.522662e-03  5.239978e-03  5.000000e-01
      vertex   3.465205e-03  6.066178e-03  5.000000e-01
    endloop
  endfacet
  facet normal -6.591708e-01  7.519932e-01  0.000000e+00
    outer loop
      vertex   2.522662e-03  5.239978e-03 -5.000000e-01
      vertex   3.465205e-03  6.066178e-03  5.000000e-01
      vertex   3.465205e-03  6.066178e-03 -5.000000e-01
    endloop
  endfacet
  facet normal -5.859223e-01  8.103672e-01  0.000000e+00
    outer loop
      vertex   3.465205e-03  6.066178e-03 -5.000000e-01
      vertex   3.465205e-03  6.066178e-03  5.000000e-01
      vertex   4.738631e-03  6.986907e-03  5.000000e-01
    endloop
  endfacet
  facet normal -5.859223e-01  8.103672e-01  0.000000e+00
    outer loop
      vertex   3.465205e-03  6.066178e-03 -5.000000e-01
      vertex   4.738631e-03  6.986907e-03  5.000000e-01
      vertex   4.738631e-03  6.986907e-03 -5.000000e-01
    endloop
  endfacet
  facet normal -5.162830e-01  8.564180e-01  0.000000e+00
    outer loop
      vertex   4.738631e-03  6.986907e-03 -5.000000e-01
      vertex   4.738631e-03  6.986907e-03  5.000000e-01
      vertex   6.110451e-03  7.813895e-03  5.000000e-01
    endloop
  endfacet
  facet normal -5.162830e-01  8.564180e-01  0.000000e+00
    outer loop
      vertex   4.738631e-03  6.986907e-03 -5.000000e-01
      vertex   6.110451e-03  7.813895e-03  5.000000e-01
      vertex   6.110451e-03  7.813895e-03 -5.000000e-01
    endloop
  endfacet
  facet normal -4.420350e-01  8.969979e-01  0.000000e+00
    outer loop
      vertex   6.110451e-03  7.813895e-03 -5.000000e-01
      vertex   6.110451e-03  7.813895e-03  5.000000e-01
      vertex   8.417558e-03  8.950823e-03  5.000000e-01
    endloop
  endfacet
  facet normal -4.420350e-01  8.969979e-01  0.000000e+00
    outer loop
      vertex   6.110451e-03  7.813895e-03 -5.000000e-01
      vertex   8.417558e-03  8.950823e-03  5.000000e-01
      vertex   8.417558e-03  8.950823e-03 -5.000000e-01
    endloop
  endfacet
  facet normal -3.575011e-01  9.339127e-01  0.000000e+00
    outer loop
      vertex   8.417558e-03  8.950823e-03 -5.000000e-01
      vertex   8.417558e-03  8.950823e-03  5.000000e-01
      vertex   1.169705e-02  1.020621e-02  5.000000e-01
    endloop
  endfacet
  facet normal -3.575011e-01  9.339127e-01  0.000000e+00
    outer loop
      vertex   8.417558e-03  8.950823e-03 -5.000000e-01
      vertex   1.169705e-02  1.020621e-02  5.000000e-01
      vertex   1.169705e-02  1.020621e-02 -5.000000e-01
    endloop
  endfacet
  facet normal -2.798476e-01  9.600444e-01  0.000000e+00
    outer loop
      vertex   1.169705e-02  1.020621e-02 -5.000000e-01
      vertex   1.169705e-02  1.020621e-02  5.000000e-01
      vertex   1.538357e-02  1.128081e-02  5.000000e-01
    endloop
  endfacet
  facet normal -2.798476e-01  9.600444e-01  0.000000e+00
    outer loop
      vertex   1.169705e-02  1.020621e-02 -5.000000e-01
      vertex   1.538357e-02  1.128081e-02  5.000000e-01
      vertex   1.538357e-02  1.128081e-02 -5.000000e-01
    endloop
  endfacet
  facet normal -2.142417e-01  9.767807e-01  0.000000e+00
    outer loop
      vertex   1.538357e-02  1.128081e-02 -5.000000e-01
      vertex   1.538357e-02  1.128081e-02  5.000000e-01
      vertex   1.953476e-02  1.219131e-02  5.000000e-01
    endloop
  endfacet
  facet normal -2.142417e-01  9.767807e-01  0.000000e+00
    outer loop
      vertex   1.538357e-02  1.128081e-02 -5.000000e-01
      vertex   1.953476e-02  1.219131e-02  5.000000e-01
      vertex   1.953476e-02  1.219131e-02 -5.000000e-01
    endloop
  endfacet
  facet normal -1.563165e-01  9.877070e-01  0.000000e+00
    outer loop
      vertex   1.953476e-02  1.219131e-02 -5.000000e-01
      vertex   1.953476e-02  1.219131e-02  5.000000e-01
      vertex   2.434994e-02  1.295337e-02  5.000000e-01
    endloop
  endfacet
  facet normal -1.563165e-01  9.877070e-01  0.000000e+00
    outer loop
      vertex   1.953476e-02  1.219131e-02 -5.000000e-01
      vertex   2.434994e-02  1.295337e-02  5.000000e-01
      vertex   2.434994e-02  1.295337e-02 -5.000000e-01
    endloop
  endfacet
  facet normal -1.037337e-01  9.946051e-01  0.000000e+00
    outer loop
      vertex   2.434994e-02  1.295337e-02 -5.000000e-01
      vertex   2.434994e-02  1.295337e-02  5.000000e-01
      vertex   2.984131e-02  1.352610e-02  5.000000e-01
    endloop
  endfacet
  facet normal -1.037337e-01  9.946051e-01  0.000000e+00
    outer loop
      vertex   2.434994e-02  1.295337e-02 -5.000000e-01
      vertex   2.984131e-02  1.352610e-02  5.000000e-01
      vertex   2.984131e-02  1.352610e-02 -5.000000e-01
    endloop
  endfacet
  facet normal -5.411565e-02  9.985346e-01  0.000000e+00
    outer loop
      vertex   2.984131e-02  1.352610e-02 -5.000000e-01
      vertex   2.984131e-02  1.352610e-02  5.000000e-01
      vertex   3.668253e-02  1.389686e-02  5.000000e-01
    endloop
  endfacet
  facet normal -5.411565e-02  9.985346e-01  0.000000e+00
    outer loop
      vertex   2.984131e-02  1.352610e-02 -5.000000e-01
      vertex   3.668253e-02  1.389686e-02  5.000000e-01
      vertex   3.668253e-02  1.389686e-02 -5.000000e-01
    endloop
  endfacet
  facet normal -9.866652e-03  9.999514e-01  0.000000e+00
    outer loop
      vertex   3.668253e-02  1.389686e-02 -5.000000e-01
      vertex   3.668253e-02  1.389686e-02  5.000000e-01
      vertex   4.366023e-02  1.396571e-02  5.000000e-01
    endloop
  endfacet
  facet normal -9.866652e-03  9.999514e-01  0.000000e+00
    outer loop
      vertex   3.668253e-02  1.389686e-02 -5.000000e-01
      vertex   4.366023e-02  1.396571e-02  5.000000e-01
      vertex   4.366023e-02  1.396571e-02 -5.000000e-01
    endloop
  endfacet
  facet normal  2.788776e-02  9.996111e-01 -0.000000e+00
    outer loop
      vertex   4.366023e-02  1.396571e-02 -5.000000e-01
      vertex   4.366023e-02  1.396571e-02  5.000000e-01
      vertex   5.149468e-02  1.374714e-02  5.000000e-01
    endloop
  endfacet
  facet normal  2.788776e-02  9.996111e-01  0.000000e+00
    outer loop
      vertex   4.366023e-02  1.396571e-02 -5.000000e-01
      vertex   5.149468e-02  1.374714e-02  5.000000e-01
      vertex   5.149468e-02  1.374714e-02 -5.000000e-01
    endloop
  endfacet
  facet normal  6.160719e-02  9.981005e-01 -0.000000e+00
    outer loop
      vertex   5.149468e-02  1.374714e-02 -5.000000e-01
      vertex   5.149468e-02  1.374714e-02  5.000000e-01
      vertex   6.023676e-02  1.320754e-02  5.000000e-01
    endloop
  endfacet
  facet normal  6.160719e-02  9.981005e-01  0.000000e+00
    outer loop
      vertex   5.149468e-02  1.374714e-02 -5.000000e-01
      vertex   6.023676e-02  1.320754e-02  5.000000e-01
      vertex   6.023676e-02  1.320754e-02 -5.000000e-01
    endloop
  endfacet
  facet normal  9.307339e-02  9.956593e-01 -0.000000e+00
    outer loop
      vertex   6.023676e-02  1.320754e-02 -5.000000e-01
      vertex   6.023676e-02  1.320754e-02  5.000000e-01
      vertex   7.114668e-02  1.218769e-02  5.000000e-01
    endloop
  endfacet
  facet normal  9.307339e-02  9.956593e-01  0.000000e+00
    outer loop
      vertex   6.023676e-02  1.320754e-02 -5.000000e-01
      vertex   7.114668e-02  1.218769e-02  5.000000e-01
      vertex   7.114668e-02  1.218769e-02 -5.000000e-01
    endloop
  endfacet
  facet normal  1.205902e-01  9.927024e-01 -0.000000e+00
    outer loop
      vertex   7.114668e-02  1.218769e-02 -5.000000e-01
      vertex   7.114668e-02  1.218769e-02  5.000000e-01
      vertex   8.213858e-02  1.085243e-02  5.000000e-01
    endloop
  endfacet
  facet normal  1.205902e-01  9.927024e-01  0.000000e+00
    outer loop
      vertex   7.114668e-02  1.218769e-02 -5.000000e-01
      vertex   8.213858e-02  1.085243e-02  5.000000e-01
      vertex   8.213858e-02  1.085243e-02 -5.000000e-01
    endloop
  endfacet
  facet normal  1.439342e-01  9.895872e-01 -0.000000e+00
    outer loop
      vertex   8.213858e-02  1.085243e-02 -5.000000e-01
      vertex   8.213858e-02  1.085243e-02  5.000000e-01
      vertex   9.455892e-02  9.045908e-03  5.000000e-01
    endloop
  endfacet
  facet normal  1.439342e-01  9.895872e-01  0.000000e+00
    outer loop
      vertex   8.213858e-02  1.085243e-02 -5.000000e-01
      vertex   9.455892e-02  9.045908e-03  5.000000e-01
      vertex   9.455892e-02  9.045908e-03 -5.000000e-01
    endloop
  endfacet
  facet normal  1.657561e-01  9.861668e-01 -0.000000e+00
    outer loop
      vertex   9.455892e-02  9.045908e-03 -5.000000e-01
      vertex   9.455892e-02  9.045908e-03  5.000000e-01
      vertex   1.083365e-01  6.730156e-03  5.000000e-01
    endloop
  endfacet
  facet normal  1.657561e-01  9.861668e-01  0.000000e+00
    outer loop
      vertex   9.455892e-02  9.045908e-03 -5.000000e-01
      vertex   1.083365e-01  6.730156e-03  5.000000e-01
      vertex   1.083365e-01  6.730156e-03 -5.000000e-01
    endloop
  endfacet
  facet normal  1.876499e-01  9.822360e-01 -0.000000e+00
    outer loop
      vertex   1.083365e-01  6.730156e-03 -5.000000e-01
      vertex   1.083365e-01  6.730156e-03  5.000000e-01
      vertex   1.231891e-01  3.892662e-03  5.000000e-01
    endloop
  endfacet
  facet normal  1.876499e-01  9.822360e-01  0.000000e+00
    outer loop
      vertex   1.083365e-01  6.730156e-03 -5.000000e-01
      vertex   1.231891e-01  3.892662e-03  5.000000e-01
      vertex   1.231891e-01  3.892662e-03 -5.000000e-01
    endloop
  endfacet
  facet normal  2.104683e-01  9.776008e-01 -0.000000e+00
    outer loop
      vertex   1.231891e-01  3.892662e-03 -5.000000e-01
      vertex   1.231891e-01  3.892662e-03  5.000000e-01
      vertex   1.368316e-01  9.555593e-04  5.000000e-01
    endloop
  endfacet
  facet normal  2.104683e-01  9.776008e-01  0.000000e+00
    outer loop
      vertex   1.231891e-01  3.892662e-03 -5.000000e-01
      vertex   1.368316e-01  9.555593e-04  5.000000e-01
      vertex   1.368316e-01  9.555593e-04 -5.000000e-01
    endloop
  endfacet
  facet normal  2.241635e-01  9.745515e-01 -0.000000e+00
    outer loop
      vertex   1.368316e-01  9.555593e-04 -5.000000e-01
      vertex   1.368316e-01  9.555593e-04  5.000000e-01
      vertex   1.388344e-01  4.948797e-04  5.000000e-01
    endloop
  endfacet
  facet normal  2.241635e-01  9.745515e-01  0.000000e+00
    outer loop
      vertex   1.368316e-01  9.555593e-04 -5.000000e-01
      vertex   1.388344e-01  4.948797e-04  5.000000e-01
      vertex   1.388344e-01  4.948797e-04 -5.000000e-01
    endloop
  endfacet
  facet normal  2.241635e-01 -9.745515e-01  0.000000e+00
    outer loop
      vertex   1.388344e-01 -4.948797e-04 -5.000000e-01
      vertex   1.388344e-01 -4.948797e-04  5.000000e-01
      vertex   1.368316e-01 -9.555593e-04  5.000000e-01
    endloop
  endfacet
  facet normal  2.241635e-01 -9.745515e-01  0.000000e+00
    outer loop
      vertex   1.388344e-01 -4.948797e-04 -5.000000e-01
      vertex   1.368316e-01 -9.555593e-04  5.000000e-01
      vertex   1.368316e-01 -9.555593e-04 -5.000000e-01
    endloop
  endfacet
  facet normal  2.104683e-01 -9.776008e-01  0.000000e+00
    outer loop
      vertex   1.368316e-01 -9.555593e-04 -5.000000e-01
      vertex   1.368316e-01 -9.555593e-04  5.000000e-01
      vertex   1.231891e-01 -3.892662e-03  5.000000e-01
    endloop
  endfacet
  facet normal  2.104683e-01 -9.776008e-01  0.000000e+00
    outer loop
      vertex   1.368316e-01 -9.555593e-04 -5.000000e-01
      vertex   1.231891e-01 -3.892662e-03  5.000000e-01
      vertex   1.231891e-01 -3.892662e-03 -5.000000e-01
    endloop
  endfacet
  facet normal  1.876499e-01 -9.822360e-01  0.000000e+00
    outer loop
      vertex   1.231891e-01 -3.892662e-03 -5.000000e-01
      vertex   1.231891e-01 -3.892662e-03  5.000000e-01
      vertex   1.083365e-01 -6.730156e-03  5.000000e-01
    endloop
  endfacet
  facet normal  1.876499e-01 -9.822360e-01  0.000000e+00
    outer loop
      vertex   1.231891e-01 -3.892662e-03 -5.000000e-01
      vertex   1.083365e-01 -6.730156e-03  5.000000e-01
      vertex   1.083365e-01 -6.730156e-03 -5.000000e-01
    endloop
  endfacet
  facet normal  1.657561e-01 -9.861668e-01  0.000000e+00
    outer loop
      vertex   1.083365e-01 -6.730156e-03 -5.000000e-01
      vertex   1.083365e-01 -6.730156e-03  5.000000e-01
      vertex   9.455892e-02 -9.045908e-03  5.000000e-01
    endloop
  endfacet
  facet normal  1.657561e-01 -9.861668e-01  0.000000e+00
    outer loop
      vertex   1.083365e-01 -6.730156e-03 -5.000000e-01
      vertex   9.455892e-02 -9.045908e-03  5.000000e-01
      vertex   9.455892e-02 -9.045908e-03 -5.000000e-01
    endloop
  endfacet
  facet normal  1.439342e-01 -9.895872e-01  0.000000e+00
    outer loop
      vertex   9.455892e-02 -9.045908e-03 -5.000000e-01
      vertex   9.455892e-02 -9.045908e-03  5.000000e-01
      vertex   8.213858e-02 -1.085243e-02  5.000000e-01
    endloop
  endfacet
  facet normal  1.439342e-01 -9.895872e-01  0.000000e+00
    outer loop
      vertex   9.455892e-02 -9.045908e-03 -5.000000e-01
      vertex   8.213858e-02 -1.085243e-02  5.000000e-01
      vertex   8.213858e-02 -1.085243e-02 -5.000000e-01
    endloop
  endfacet
  facet normal  1.205902e-01 -9.927024e-01  0.000000e+00
    outer loop
      vertex   8.213858e-02 -1.085243e-02 -5.000000e-01
      vertex   8.213858e-02 -1.085243e-02  5.000000e-01
      vertex   7.114668e-02 -1.218769e-02  5.000000e-01
    endloop
  endfacet
  facet normal  1.205902e-01 -9.927024e-01  0.000000e+00
    outer loop
      vertex   8.213858e-02 -1.085243e-02 -5.000000e-01
      vertex   7.114668e-02 -1.218769e-02  5.000000e-01
      vertex   7.114668e-02 -1.218769e-02 -5.000000e-01
    endloop
  endfacet
  facet normal  9.307339e-02 -9.956593e-01  0.000000e+00
    outer loop
      vertex   7.114668e-02 -1.218769e-02 -5.000000e-01
      vertex   7.114668e-02 -1.218769e-02  5.000000e-01
      vertex   6.023676e-02 -1.320754e-02  5.000000e-01
    endloop
  endfacet
  facet normal  9.307339e-02 -9.956593e-01  0.000000e+00
    outer loop
      vertex   7.114668e-02 -1.218769e-02 -5.000000e-01
      vertex   6.023676e-02 -1.320754e-02  5.000000e-01
      vertex   6.023676e-02 -1.320754e-02 -5.000000e-01
    endloop
  endfacet
  facet normal  6.160719e-02 -9.981005e-01  0.000000e+00
    outer loop
      vertex   6.023676e-02 -1.320754e-02 -5.000000e-01
      vertex   6.023676e-02 -1.320754e-02  5.000000e-01
      vertex   5.149468e-02 -1.374714e-02  5.000000e-01
    endloop
  endfacet
  facet normal  6.160719e-02 -9.981005e-01  0.000000e+00
    outer loop
      vertex   6.023676e-02 -1.320754e-02 -5.000000e-01
      vertex   5.149468e-02 -1.374714e-02  5.000000e-01
      vertex   5.149468e-02 -1.374714e-02 -5.000000e-01
    endloop
  endfacet
  facet normal  2.788776e-02 -9.996111e-01  0.000000e+00
    outer loop
      vertex   5.149468e-02 -1.374714e-02 -5.000000e-01
      vertex   5.149468e-02 -1.374714e-02  5.000000e-01
      vertex   4.366023e-02 -1.396571e-02  5.000000e-01
    endloop
  endfacet
  facet normal  2.788776e-02 -9.996111e-01  0.000000e+00
    outer loop
      vertex   5.149468e-02 -1.374714e-02 -5.000000e-01
      vertex   4.366023e-02 -1.396571e-02  5.000000e-01
      vertex   4.366023e-02 -1.396571e-02 -5.000000e-01
    endloop
  endfacet
  facet normal -9.866652e-03 -9.999514e-01  0.000000e+00
    outer loop
      vertex   4.366023e-02 -1.396571e-02 -5.000000e-01
      vertex   4.366023e-02 -1.396571e-02  5.000000e-01
      vertex   3.668253e-02 -1.389686e-02  5.000000e-01
    endloop
  endfacet
  facet normal -9.866652e-03 -9.999514e-01  0.000000e+00
    outer loop
      vertex   4.366023e-02 -1.396571e-02 -5.000000e-01
      vertex   3.668253e-02 -1.389686e-02  5.000000e-01
      vertex   3.668253e-02 -1.389686e-02 -5.000000e-01
    endloop
  endfacet
  facet normal -5.411565e-02 -9.985346e-01  0.000000e+00
    outer loop
      vertex   3.668253e-02 -1.389686e-02 -5.000000e-01
      vertex   3.668253e-02 -1.389686e-02  5.000000e-01
      vertex   2.984131e-02 -1.352610e-02  5.000000e-01
    endloop
  endfacet
  facet normal -5.411565e-02 -9.985346e-01  0.000000e+00
    outer loop
      vertex   3.668253e-02 -1.389686e-02 -5.000000e-01
      vertex   2.984131e-02 -1.352610e-02  5.000000e-01
      vertex   2.984131e-02 -1.352610e-02 -5.000000e-01
    endloop
  endfacet
  facet normal -1.037337e-01 -9.946051e-01  0.000000e+00
    outer loop
      vertex   2.984131e-02 -1.352610e-02 -5.000000e-01
      vertex   2.984131e-02 -1.352610e-02  5.000000e-01
      vertex   2.434994e-02 -1.295337e-02  5.000000e-01
    endloop
  endfacet
  facet normal -1.037337e-01 -9.946051e-01  0.000000e+00
    outer loop
      vertex   2.984131e-02 -1.352610e-02 -5.000000e-01
      vertex   2.434994e-02 -1.295337e-02  5.000000e-01
      vertex   2.434994e-02 -1.295337e-02 -5.000000e-01
    endloop
  endfacet
  facet normal -1.563165e-01 -9.877070e-01  0.000000e+00
    outer loop
      vertex   2.434994e-02 -1.295337e-02 -5.000000e-01
      vertex   2.434994e-02 -1.295337e-02  5.000000e-01
      vertex   1.953476e-02 -1.219131e-02  5.000000e-01
    endloop
  endfacet
  facet normal -1.563165e-01 -9.877070e-01  0.000000e+00
    outer loop
      vertex   2.434994e-02 -1.295337e-02 -5.000000e-01
      vertex   1.953476e-02 -1.219131e-02  5.000000e-01
      vertex   1.953476e-02 -1.219131e-02 -5.000000e-01
    endloop
  endfacet
  facet normal -2.142417e-01 -9.767807e-01  0.000000e+00
    outer loop
      vertex   1.953476e-02 -1.219131e-02 -5.000000e-01
      vertex   1.953476e-02 -1.219131e-02  5.000000e-01
      vertex   1.538357e-02 -1.128081e-02  5.000000e-01
    endloop
  endfacet
  facet normal -2.142417e-01 -9.767807e-01  0.000000e+00
    outer loop
      vertex   1.953476e-02 -1.219131e-02 -5.000000e-01
      vertex   1.538357e-02 -1.128081e-02  5.000000e-01
      vertex   1.538357e-02 -1.128081e-02 -5.000000e-01
    endloop
  endfacet
  facet normal -2.798476e-01 -9.600444e-01  0.000000e+00
    outer loop
      vertex   1.538357e-02 -1.128081e-02 -5.000000e-01
      vertex   1.538357e-02 -1.128081e-02  5.000000e-01
      vertex   1.169705e-02 -1.020621e-02  5.000000e-01
    endloop
  endfacet
  facet normal -2.798476e-01 -9.600444e-01  0.000000e+00
    outer loop
      vertex   1.538357e-02 -1.128081e-02 -5.000000e-01
      vertex   1.169705e-02 -1.020621e-02  5.000000e-01
      vertex   1.169705e-02 -1.020621e-02 -5.000000e-01
    endloop
  endfacet
  facet normal -3.575011e-01 -9.339127e-01  0.000000e+00
    outer loop
      vertex   1.169705e-02 -1.020621e-02 -5.000000e-01
      vertex   1.169705e-02 -1.020621e-02  5.000000e-01
      vertex   8.417558e-03 -8.950823e-03  5.000000e-01
    endloop
  endfacet
  facet normal -3.575011e-01 -9.339127e-01  0.000000e+00
    outer loop
      vertex   1.169705e-02 -1.020621e-02 -5.000000e-01
      vertex   8.417558e-03 -8.950823e-03  5.000000e-01
      vertex   8.417558e-03 -8.950823e-03 -5.000000e-01
    endloop
  endfacet
  facet normal -4.420350e-01 -8.969979e-01  0.000000e+00
    outer loop
      vertex   8.417558e-03 -8.950823e-03 -5.000000e-01
      vertex   8.417558e-03 -8.950823e-03  5.000000e-01
      vertex   6.110451e-03 -7.813895e-03  5.000000e-01
    endloop
  endfacet
  facet normal -4.420350e-01 -8.969979e-01  0.000000e+00
    outer loop
      vertex   8.417558e-03 -8.950823e-03 -5.000000e-01
      vertex   6.110451e-03 -7.813895e-03  5.000000e-01
      vertex   6.110451e-03 -7.813895e-03 -5.000000e-01
    endloop
  endfacet
  facet normal -5.162830e-01 -8.564180e-01  0.000000e+00
    outer loop
      vertex   6.110451e-03 -7.813895e-03 -5.000000e-01
      vertex   6.110451e-03 -7.813895e-03  5.000000e-01
      vertex   4.738631e-03 -6.986907e-03  5.000000e-01
    endloop
  endfacet
  facet normal -5.162830e-01 -8.564180e-01  0.000000e+00
    outer loop
      vertex   6.110451e-03 -7.813895e-03 -5.000000e-01
      vertex   4.738631e-03 -6.986907e-03  5.000000e-01
      vertex   4.738631e-03 -6.986907e-03 -5.000000e-01
    endloop
  endfacet
  facet normal -5.859223e-01 -8.103672e-01  0.000000e+00
    outer loop
      vertex   4.738631e-03 -6.986907e-03 -5.000000e-01
      vertex   4.738631e-03 -6.986907e-03  5.000000e-01
      vertex   3.465205e-03 -6.066178e-03  5.000000e-01
    endloop
  endfacet
  facet normal -5.859223e-01 -8.103672e-01  0.000000e+00
    outer loop
      vertex   4.738631e-03 -6.986907e-03 -5.000000e-01
      vertex   3.465205e-03 -6.066178e-03  5.000000e-01
      vertex   3.465205e-03 -6.066178e-03 -5.000000e-01
    endloop
  endfacet
  facet normal -6.591708e-01 -7.519932e-01  0.000000e+00
    outer loop
      vertex   3.465205e-03 -6.066178e-03 -5.000000e-01
      vertex   3.465205e-03 -6.066178e-03  5.000000e-01
      vertex   2.522662e-03 -5.239978e-03  5.000000e-01
    endloop
  endfacet
  facet normal -6.591708e-01 -7.519932e-01  0.000000e+00
    outer loop
      vertex   3.465205e-03 -6.066178e-03 -5.000000e-01
      vertex   2.522662e-03 -5.239978e-03  5.000000e-01
      vertex   2.522662e-03 -5.239978e-03 -5.000000e-01
    endloop
  endfacet
  facet normal -7.229365e-01 -6.909145e-01  0.000000e+00
    outer loop
      vertex   2.522662e-03 -5.239978e-03 -5.000000e-01
      vertex   2.522662e-03 -5.239978e-03  5.000000e-01
      vertex   1.897142e-03 -4.585467e-03  5.000000e-01
    endloop
  endfacet
  facet normal -7.229365e-01 -6.909145e-01  0.000000e+00
    outer loop
      vertex   2.522662e-03 -5.239978e-03 -5.000000e-01
      vertex   1.897142e-03 -4.585467e-03  5.000000e-01
      vertex   1.897142e-03 -4.585467e-03 -5.000000e-01
    endloop
  endfacet
  facet normal -7.776126e-01 -6.287436e-01  0.000000e+00
    outer loop
      vertex   1.897142e-03 -4.585467e-03 -5.000000e-01
      vertex   1.897142e-03 -4.585467e-03  5.000000e-01
      vertex   1.397895e-03 -3.968012e-03  5.000000e-01
    endloop
  endfacet
  facet normal -7.776126e-01 -6.287436e-01  0.000000e+00
    outer loop
      vertex   1.897142e-03 -4.585467e-03 -5.000000e-01
      vertex   1.397895e-03 -3.968012e-03  5.000000e-01
      vertex   1.397895e-03 -3.968012e-03 -5.000000e-01
    endloop
  endfacet
  facet normal -8.279511e-01 -5.608004e-01  0.000000e+00
    outer loop
      vertex   1.397895e-03 -3.968012e-03 -5.000000e-01
      vertex   1.397895e-03 -3.968012e-03  5.000000e-01
      vertex   9.991417e-04 -3.379303e-03  5.000000e-01
    endloop
  endfacet
  facet normal -8.279511e-01 -5.608004e-01  0.000000e+00
    outer loop
      vertex   1.397895e-03 -3.968012e-03 -5.000000e-01
      vertex   9.991417e-04 -3.379303e-03  5.000000e-01
      vertex   9.991417e-04 -3.379303e-03 -5.000000e-01
    endloop
  endfacet
  facet normal -8.732642e-01 -4.872470e-01  0.000000e+00
    outer loop
      vertex   9.991417e-04 -3.379303e-03 -5.000000e-01
      vertex   9.991417e-04 -3.379303e-03  5.000000e-01
      vertex   6.819355e-04 -2.810793e-03  5.000000e-01
    endloop
  endfacet
  facet normal -8.732642e-01 -4.872470e-01  0.000000e+00
    outer loop
      vertex   9.991417e-04 -3.379303e-03 -5.000000e-01
      vertex   6.819355e-04 -2.810793e-03  5.000000e-01
      vertex   6.819355e-04 -2.810793e-03 -5.000000e-01
    endloop
  endfacet
  facet normal -9.128676e-01 -4.082558e-01  0.000000e+00
    outer loop
      vertex   6.819355e-04 -2.810793e-03 -5.000000e-01
      vertex   6.819355e-04 -2.810793e-03  5.000000e-01
      vertex   4.331715e-04 -2.254552e-03  5.000000e-01
    endloop
  endfacet
  facet normal -9.128676e-01 -4.082558e-01  0.000000e+00
    outer loop
      vertex   6.819355e-04 -2.810793e-03 -5.000000e-01
      vertex   4.331715e-04 -2.254552e-03  5.000000e-01
      vertex   4.331715e-04 -2.254552e-03 -5.000000e-01
    endloop
  endfacet
  facet normal -9.459903e-01 -3.241949e-01  0.000000e+00
    outer loop
      vertex   4.331715e-04 -2.254552e-03 -5.000000e-01
      vertex   4.331715e-04 -2.254552e-03  5.000000e-01
      vertex   2.440183e-04 -1.702609e-03  5.000000e-01
    endloop
  endfacet
  facet normal -9.459903e-01 -3.241949e-01  0.000000e+00
    outer loop
      vertex   4.331715e-04 -2.254552e-03 -5.000000e-01
      vertex   2.440183e-04 -1.702609e-03  5.000000e-01
      vertex   2.440183e-04 -1.702609e-03 -5.000000e-01
    endloop
  endfacet
  facet normal -9.719707e-01 -2.351023e-01  0.000000e+00
    outer loop
      vertex   2.440183e-04 -1.702609e-03 -5.000000e-01
      vertex   2.440183e-04 -1.702609e-03  5.000000e-01
      vertex   1.087322e-04 -1.143303e-03  5.000000e-01
    endloop
  endfacet
  facet normal -9.719707e-01 -2.351023e-01  0.000000e+00
    outer loop
      vertex   2.440183e-04 -1.702609e-03 -5.000000e-01
      vertex   1.087322e-04 -1.143303e-03  5.000000e-01
      vertex   1.087322e-04 -1.143303e-03 -5.000000e-01
    endloop
  endfacet
  facet normal -9.898610e-01 -1.420392e-01  0.000000e+00
    outer loop
      vertex   1.087322e-04 -1.143303e-03 -5.000000e-01
      vertex   1.087322e-04 -1.143303e-03  5.000000e-01
      vertex   2.708756e-05 -5.743274e-04  5.000000e-01
    endloop
  endfacet
  facet normal -9.898610e-01 -1.420392e-01  0.000000e+00
    outer loop
      vertex   1.087322e-04 -1.143303e-03 -5.000000e-01
      vertex   2.708756e-05 -5.743274e-04  5.000000e-01
      vertex   2.708756e-05 -5.743274e-04 -5.000000e-01
    endloop
  endfacet
  facet normal -9.988896e-01 -4.711160e-02  0.000000e+00
    outer loop
      vertex   2.708756e-05 -5.743274e-04 -5.000000e-01
      vertex   2.708756e-05 -5.743274e-04  5.000000e-01
      vertex  -2.891567e-20  4.406198e-19  5.000000e-01
    endloop
  endfacet
  facet normal -9.988896e-01 -4.711160e-02  0.000000e+00
    outer loop
      vertex   2.708756e-05 -5.743274e-04 -5.000000e-01
      vertex  -2.891567e-20  4.406198e-19  5.000000e-01
      vertex  -2.891567e-20  4.406198e-19 -5.000000e-01
    endloop
  endfacet
  facet normal  0.000000e+00  0.000000e+00 -1.000000e+00
    outer loop
      vertex   2.434994e-02  1.295337e-02 -5.000000e-01
      vertex   2.984131e-02  1.352610e-02 -5.000000e-01
      vertex   2.434994e-02 -1.295337e-02 -5.000000e-01
    endloop
  endfacet
  facet normal -0.000000e+00 -0.000000e+00 -1.000000e+00
    outer loop
      vertex   1.388344e-01  4.948797e-04 -5.000000e-01
      vertex   1.388344e-01 -4.948797e-04 -5.000000e-01
      vertex   1.368316e-01  9.555593e-04 -5.000000e-01
    endloop
  endfacet
  facet normal  0.000000e+00  0.000000e+00 -1.000000e+00
    outer loop
      vertex   1.368316e-01  9.555593e-04 -5.000000e-01
      vertex   1.388344e-01 -4.948797e-04 -5.000000e-01
      vertex   1.368316e-01 -9.555593e-04 -5.000000e-01
    endloop
  endfacet
  facet normal -0.000000e+00 -0.000000e+00 -1.000000e+00
    outer loop
      vertex   1.368316e-01  9.555593e-04 -5.000000e-01
      vertex   1.368316e-01 -9.555593e-04 -5.000000e-01
      vertex   1.231891e-01  3.892662e-03 -5.000000e-01
    endloop
  endfacet
  facet normal  0.000000e+00  0.000000e+00 -1.000000e+00
    outer loop
      vertex   1.231891e-01  3.892662e-03 -5.000000e-01
      vertex   1.368316e-01 -9.555593e-04 -5.000000e-01
      vertex   1.231891e-01 -3.892662e-03 -5.000000e-01
    endloop
  endfacet
  facet normal -0.000000e+00 -0.000000e+00 -1.000000e+00
    outer loop
      vertex   1.231891e-01  3.892662e-03 -5.000000e-01
      vertex   1.231891e-01 -3.892662e-03 -5.000000e-01
      vertex   1.083365e-01  6.730156e-03 -5.000000e-01
    endloop
  endfacet
  facet normal  0.000000e+00  0.000000e+00 -1.000000e+00
    outer loop
      vertex   1.083365e-01  6.730156e-03 -5.000000e-01
      vertex   1.231891e-01 -3.892662e-03 -5.000000e-01
      vertex   1.083365e-01 -6.730156e-03 -5.000000e-01
    endloop
  endfacet
  facet normal -0.000000e+00 -0.000000e+00 -1.000000e+00
    outer loop
      vertex   1.083365e-01  6.730156e-03 -5.000000e-01
      vertex   1.083365e-01 -6.730156e-03 -5.000000e-01
      vertex   9.455892e-02  9.045908e-03 -5.000000e-01
    endloop
  endfacet
  facet normal  0.000000e+00  0.000000e+00 -1.000000e+00
    outer loop
      vertex   9.455892e-02  9.045908e-03 -5.000000e-01
      vertex   1.083365e-01 -6.730156e-03 -5.000000e-01
      vertex   9.455892e-02 -9.045908e-03 -5.000000e-01
    endloop
  endfacet
  facet normal -0.000000e+00 -0.000000e+00 -1.000000e+00
    outer loop
      vertex   9.455892e-02  9.045908e-03 -5.000000e-01
      vertex   9.455892e-02 -9.045908e-03 -5.000000e-01
      vertex   8.213858e-02  1.085243e-02 -5.000000e-01
    endloop
  endfacet
  facet normal  0.000000e+00  0.000000e+00 -1.000000e+00
    outer loop
      vertex   8.213858e-02  1.085243e-02 -5.000000e-01
      vertex   9.455892e-02 -9.045908e-03 -5.000000e-01
      vertex   8.213858e-02 -1.085243e-02 -5.000000e-01
    endloop
  endfacet
  facet normal -0.000000e+00 -0.000000e+00 -1.000000e+00
    outer loop
      vertex   8.213858e-02  1.085243e-02 -5.000000e-01
      vertex   8.213858e-02 -1.085243e-02 -5.000000e-01
      vertex   7.114668e-02  1.218769e-02 -5.000000e-01
    endloop
  endfacet
  facet normal  0.000000e+00  0.000000e+00 -1.000000e+00
    outer loop
      vertex   7.114668e-02  1.218769e-02 -5.000000e-01
      vertex   8.213858e-02 -1.085243e-02 -5.000000e-01
      vertex   7.114668e-02 -1.218769e-02 -5.000000e-01
    endloop
  endfacet
  facet normal -0.000000e+00 -0.000000e+00 -1.000000e+00
    outer loop
      vertex   7.114668e-02  1.218769e-02 -5.000000e-01
      vertex   7.114668e-02 -1.218769e-02 -5.000000e-01
      vertex   6.023676e-02  1.320754e-02 -5.000000e-01
    endloop
  endfacet
  facet normal  0.000000e+00  0.000000e+00 -1.000000e+00
    outer loop
      vertex   6.023676e-02  1.320754e-02 -5.000000e-01
      vertex   7.114668e-02 -1.218769e-02 -5.000000e-01
      vertex   6.023676e-02 -1.320754e-02 -5.000000e-01
    endloop
  endfacet
  facet normal -0.000000e+00 -0.000000e+00 -1.000000e+00
    outer loop
      vertex   6.023676e-02  1.320754e-02 -5.000000e-01
      vertex   6.023676e-02 -1.320754e-02 -5.000000e-01
      vertex   5.149468e-02  1.374714e-02 -5.000000e-01
    endloop
  endfacet
  facet normal  0.000000e+00  0.000000e+00 -1.000000e+00
    outer loop
      vertex   5.149468e-02  1.374714e-02 -5.000000e-01
      vertex   6.023676e-02 -1.320754e-02 -5.000000e-01
      vertex   5.149468e-02 -1.374714e-02 -5.000000e-01
    endloop
  endfacet
  facet normal -0.000000e+00 -0.000000e+00 -1.000000e+00
    outer loop
      vertex   5.149468e-02  1.374714e-02 -5.000000e-01
      vertex   5.149468e-02 -1.374714e-02 -5.000000e-01
      vertex   4.366023e-02  1.396571e-02 -5.000000e-01
    endloop
  endfacet
  facet normal  0.000000e+00  0.000000e+00 -1.000000e+00
    outer loop
      vertex   4.366023e-02  1.396571e-02 -5.000000e-01
      vertex   5.149468e-02 -1.374714e-02 -5.000000e-01
      vertex   4.366023e-02 -1.396571e-02 -5.000000e-01
    endloop
  endfacet
  facet normal  0.000000e+00 -0.000000e+00 -1.000000e+00
    outer loop
      vertex   4.366023e-02  1.396571e-02 -5.000000e-01
      vertex   4.366023e-02 -1.396571e-02 -5.000000e-01
      vertex   3.668253e-02  1.389686e-02 -5.000000e-01
    endloop
  endfacet
  facet normal  0.000000e+00  0.000000e+00 -1.000000e+00
    outer loop
      vertex   3.668253e-02  1.389686e-02 -5.000000e-01
      vertex   4.366023e-02 -1.396571e-02 -5.000000e-01
      vertex   3.668253e-02 -1.389686e-02 -5.000000e-01
    endloop
  endfacet
  facet normal  0.000000e+00 -0.000000e+00 -1.000000e+00
    outer loop
      vertex   3.668253e-02  1.389686e-02 -5.000000e-01
      vertex   3.668253e-02 -1.389686e-02 -5.000000e-01
      vertex   2.984131e-02  1.352610e-02 -5.000000e-01
    endloop
  endfacet
  facet normal  0.000000e+00  0.000000e+00 -1.000000e+00
    outer loop
      vertex   2.984131e-02  1.352610e-02 -5.000000e-01
      vertex   3.668253e-02 -1.389686e-02 -5.000000e-01
      vertex   2.984131e-02 -1.352610e-02 -5.000000e-01
    endloop
  endfacet
  facet normal  0.000000e+00 -0.000000e+00 -1.000000e+00
    outer loop
      vertex   2.984131e-02  1.352610e-02 -5.000000e-01
      vertex   2.984131e-02 -1.352610e-02 -5.000000e-01
      vertex   2.434994e-02 -1.295337e-02 -5.000000e-01
    endloop
  endfacet
  facet normal  0.000000e+00  0.000000e+00 -1.000000e+00
    outer loop
      vertex   9.991417e-04  3.379303e-03 -5.000000e-01
      vertex   1.397895e-03  3.968012e-03 -5.000000e-01
      vertex   1.397895e-03 -3.968012e-03 -5.000000e-01
    endloop
  endfacet
  facet normal  0.000000e+00 -0.000000e+00 -1.000000e+00
    outer loop
      vertex   2.434994e-02  1.295337e-02 -5.000000e-01
      vertex   2.434994e-02 -1.295337e-02 -5.000000e-01
      vertex   1.953476e-02  1.219131e-02 -5.000000e-01
    endloop
  endfacet
  facet normal  0.000000e+00  0.000000e+00 -1.000000e+00
    outer loop
      vertex   1.953476e-02  1.219131e-02 -5.000000e-01
      vertex   2.434994e-02 -1.295337e-02 -5.000000e-01
      vertex   1.953476e-02 -1.219131e-02 -5.000000e-01
    endloop
  endfacet
  facet normal  0.000000e+00 -0.000000e+00 -1.000000e+00
    outer loop
      vertex   1.953476e-02  1.219131e-02 -5.000000e-01
      vertex   1.953476e-02 -1.219131e-02 -5.000000e-01
      vertex   1.538357e-02  1.128081e-02 -5.000000e-01
    endloop
  endfacet
  facet normal  0.000000e+00  0.000000e+00 -1.000000e+00
    outer loop
      vertex   1.538357e-02  1.128081e-02 -5.000000e-01
      vertex   1.953476e-02 -1.219131e-02 -5.000000e-01
      vertex   1.538357e-02 -1.128081e-02 -5.000000e-01
    endloop
  endfacet
  facet normal  0.000000e+00 -0.000000e+00 -1.000000e+00
    outer loop
      vertex   1.538357e-02  1.128081e-02 -5.000000e-01
      vertex   1.538357e-02 -1.128081e-02 -5.000000e-01
      vertex   1.169705e-02  1.020621e-02 -5.000000e-01
    endloop
  endfacet
  facet normal  0.000000e+00  0.000000e+00 -1.000000e+00
    outer loop
      vertex   1.169705e-02  1.020621e-02 -5.000000e-01
      vertex   1.538357e-02 -1.128081e-02 -5.000000e-01
      vertex   1.169705e-02 -1.020621e-02 -5.000000e-01
    endloop
  endfacet
  facet normal  0.000000e+00 -0.000000e+00 -1.000000e+00
    outer loop
      vertex   1.169705e-02  1.020621e-02 -5.000000e-01
      vertex   1.169705e-02 -1.020621e-02 -5.000000e-01
      vertex   8.417558e-03 -8.950823e-03 -5.000000e-01
    endloop
  endfacet
  facet normal  0.000000e+00  0.000000e+00 -1.000000e+00
    outer loop
      vertex   8.417558e-03 -8.950823e-03 -5.000000e-01
      vertex   6.110451e-03 -7.813895e-03 -5.000000e-01
      vertex   1.169705e-02  1.020621e-02 -5.000000e-01
    endloop
  endfacet
  facet normal  0.000000e+00  0.000000e+00 -1.000000e+00
    outer loop
      vertex   1.169705e-02  1.020621e-02 -5.000000e-01
      vertex   6.110451e-03 -7.813895e-03 -5.000000e-01
      vertex   4.738631e-03 -6.986907e-03 -5.000000e-01
    endloop
  endfacet
  facet normal  0.000000e+00  0.000000e+00 -1.000000e+00
    outer loop
      vertex   1.169705e-02  1.020621e-02 -5.000000e-01
      vertex   4.738631e-03 -6.986907e-03 -5.000000e-01
      vertex   3.465205e-03 -6.066178e-03 -5.000000e-01
    endloop
  endfacet
  facet normal  0.000000e+00  0.000000e+00 -1.000000e+00
    outer loop
      vertex   1.397895e-03 -3.968012e-03 -5.000000e-01
      vertex   1.397895e-03  3.968012e-03 -5.000000e-01
      vertex   1.897142e-03 -4.585467e-03 -5.000000e-01
    endloop
  endfacet
  facet normal  0.000000e+00  0.000000e+00 -1.000000e+00
    outer loop
      vertex   1.897142e-03 -4.585467e-03 -5.000000e-01
      vertex   1.397895e-03  3.968012e-03 -5.000000e-01
      vertex   1.897142e-03  4.585467e-03 -5.000000e-01
    endloop
  endfacet
  facet normal  0.000000e+00  0.000000e+00 -1.000000e+00
    outer loop
      vertex   1.897142e-03 -4.585467e-03 -5.000000e-01
      vertex   1.897142e-03  4.585467e-03 -5.000000e-01
      vertex   2.522662e-03  5.239978e-03 -5.000000e-01
    endloop
  endfacet
  facet normal  0.000000e+00 -0.000000e+00 -1.000000e+00
    outer loop
      vertex   2.522662e-03  5.239978e-03 -5.000000e-01
      vertex   3.465205e-03  6.066178e-03 -5.000000e-01
      vertex   1.897142e-03 -4.585467e-03 -5.000000e-01
    endloop
  endfacet
  facet normal  0.000000e+00  0.000000e+00 -1.000000e+00
    outer loop
      vertex   1.897142e-03 -4.585467e-03 -5.000000e-01
      vertex   3.465205e-03  6.066178e-03 -5.000000e-01
      vertex   4.738631e-03  6.986907e-03 -5.000000e-01
    endloop
  endfacet
  facet normal  0.000000e+00  0.000000e+00 -1.000000e+00
    outer loop
      vertex   1.897142e-03 -4.585467e-03 -5.000000e-01
      vertex   4.738631e-03  6.986907e-03 -5.000000e-01
      vertex   6.110451e-03  7.813895e-03 -5.000000e-01
    endloop
  endfacet
  facet normal  0.000000e+00  0.000000e+00 -1.000000e+00
    outer loop
      vertex   3.465205e-03 -6.066178e-03 -5.000000e-01
      vertex   2.522662e-03 -5.239978e-03 -5.000000e-01
      vertex   1.169705e-02  1.020621e-02 -5.000000e-01
    endloop
  endfacet
  facet normal  0.000000e+00  0.000000e+00 -1.000000e+00
    outer loop
      vertex   1.169705e-02  1.020621e-02 -5.000000e-01
      vertex   2.522662e-03 -5.239978e-03 -5.000000e-01
      vertex   1.897142e-03 -4.585467e-03 -5.000000e-01
    endloop
  endfacet
  facet normal  0.000000e+00  0.000000e+00 -1.000000e+00
    outer loop
      vertex   1.169705e-02  1.020621e-02 -5.000000e-01
      vertex   1.897142e-03 -4.585467e-03 -5.000000e-01
      vertex   8.417558e-03  8.950823e-03 -5.000000e-01
    endloop
  endfacet
  facet normal  0.000000e+00  0.000000e+00 -1.000000e+00
    outer loop
      vertex   8.417558e-03  8.950823e-03 -5.000000e-01
      vertex   1.897142e-03 -4.585467e-03 -5.000000e-01
      vertex   6.110451e-03  7.813895e-03 -5.000000e-01
    endloop
  endfacet
  facet normal  0.000000e+00  0.000000e+00 -1.000000e+00
    outer loop
      vertex   1.397895e-03 -3.968012e-03 -5.000000e-01
      vertex   9.991417e-04 -3.379303e-03 -5.000000e-01
      vertex   9.991417e-04  3.379303e-03 -5.000000e-01
    endloop
  endfacet
  facet normal  0.000000e+00 -0.000000e+00 -1.000000e+00
    outer loop
      vertex   9.991417e-04  3.379303e-03 -5.000000e-01
      vertex   9.991417e-04 -3.379303e-03 -5.000000e-01
      vertex   6.819355e-04 -2.810793e-03 -5.000000e-01
    endloop
  endfacet
  facet normal  0.000000e+00  0.000000e+00 -1.000000e+00
    outer loop
      vertex   9.991417e-04  3.379303e-03 -5.000000e-01
      vertex   6.819355e-04 -2.810793e-03 -5.000000e-01
      vertex   6.819355e-04  2.810793e-03 -5.000000e-01
    endloop
  endfacet
  facet normal  0.000000e+00 -0.000000e+00 -1.000000e+00
    outer loop
      vertex   6.819355e-04  2.810793e-03 -5.000000e-01
      vertex   6.819355e-04 -2.810793e-03 -5.000000e-01
      vertex   4.331715e-04  2.254552e-03 -5.000000e-01
    endloop
  endfacet
  facet normal  0.000000e+00 -0.000000e+00 -1.000000e+00
    outer loop
      vertex   2.708756e-05  5.743274e-04 -5.000000e-01
      vertex   1.087322e-04  1.143303e-03 -5.000000e-01
      vertex  -2.891567e-20  4.406198e-19 -5.000000e-01
    endloop
  endfacet
  facet normal  0.000000e+00  0.000000e+00 -1.000000e+00
    outer loop
      vertex  -2.891567e-20  4.406198e-19 -5.000000e-01
      vertex   1.087322e-04  1.143303e-03 -5.000000e-01
      vertex   2.440183e-04  1.702609e-03 -5.000000e-01
    endloop
  endfacet
  facet normal  0.000000e+00  0.000000e+00 -1.000000e+00
    outer loop
      vertex  -2.891567e-20  4.406198e-19 -5.000000e-01
      vertex   2.440183e-04  1.702609e-03 -5.000000e-01
      vertex   2.708756e-05 -5.743274e-04 -5.000000e-01
    endloop
  endfacet
  facet normal  0.000000e+00  0.000000e+00 -1.000000e+00
    outer loop
      vertex   6.819355e-04 -2.810793e-03 -5.000000e-01
      vertex   4.331715e-04 -2.254552e-03 -5.000000e-01
      vertex   4.331715e-04  2.254552e-03 -5.000000e-01
    endloop
  endfacet
  facet normal  0.000000e+00 -0.000000e+00 -1.000000e+00
    outer loop
      vertex   4.331715e-04  2.254552e-03 -5.000000e-01
      vertex   4.331715e-04 -2.254552e-03 -5.000000e-01
      vertex   2.440183e-04 -1.702609e-03 -5.000000e-01
    endloop
  endfacet
  facet normal  0.000000e+00  0.000000e+00 -1.000000e+00
    outer loop
      vertex   4.331715e-04  2.254552e-03 -5.000000e-01
      vertex   2.440183e-04 -1.702609e-03 -5.000000e-01
      vertex   2.440183e-04  1.702609e-03 -5.000000e-01
    endloop
  endfacet
  facet normal  0.000000e+00 -0.000000e+00 -1.000000e+00
    outer loop
      vertex   2.440183e-04  1.702609e-03 -5.000000e-01
      vertex   2.440183e-04 -1.702609e-03 -5.000000e-01
      vertex   1.087322e-04 -1.143303e-03 -5.000000e-01
    endloop
  endfacet
  facet normal  0.000000e+00  0.000000e+00 -1.000000e+00
    outer loop
      vertex   2.440183e-04  1.702609e-03 -5.000000e-01
      vertex   1.087322e-04 -1.143303e-03 -5.000000e-01
      vertex   2.708756e-05 -5.743274e-04 -5.000000e-01
    endloop
  endfacet
  facet normal  0.000000e+00 -0.000000e+00  1.000000e+00
    outer loop
      vertex   1.388344e-01 -4.948797e-04  5.000000e-01
      vertex   1.388344e-01  4.948797e-04  5.000000e-01
      vertex   1.368316e-01 -9.555593e-04  5.000000e-01
    endloop
  endfacet
  facet normal  0.000000e+00  0.000000e+00  1.000000e+00
    outer loop
      vertex   1.368316e-01 -9.555593e-04  5.000000e-01
      vertex   1.388344e-01  4.948797e-04  5.000000e-01
      vertex   1.368316e-01  9.555593e-04  5.000000e-01
    endloop
  endfacet
  facet normal  0.000000e+00 -0.000000e+00  1.000000e+00
    outer loop
      vertex   1.368316e-01 -9.555593e-04  5.000000e-01
      vertex   1.368316e-01  9.555593e-04  5.000000e-01
      vertex   1.231891e-01 -3.892662e-03  5.000000e-01
    endloop
  endfacet
  facet normal  0.000000e+00  0.000000e+00  1.000000e+00
    outer loop
      vertex   1.231891e-01 -3.892662e-03  5.000000e-01
      vertex   1.368316e-01  9.555593e-04  5.000000e-01
      vertex   1.231891e-01  3.892662e-03  5.000000e-01
    endloop
  endfacet
  facet normal  0.000000e+00 -0.000000e+00  1.000000e+00
    outer loop
      vertex   1.231891e-01 -3.892662e-03  5.000000e-01
      vertex   1.231891e-01  3.892662e-03  5.000000e-01
      vertex   1.083365e-01 -6.730156e-03  5.000000e-01
    endloop
  endfacet
  facet normal  0.000000e+00  0.000000e+00  1.000000e+00
    outer loop
      vertex   1.083365e-01 -6.730156e-03  5.000000e-01
      vertex   1.231891e-01  3.892662e-03  5.000000e-01
      vertex   1.083365e-01  6.730156e-03  5.000000e-01
    endloop
  endfacet
  facet normal  0.000000e+00 -0.000000e+00  1.000000e+00
    outer loop
      vertex   1.083365e-01 -6.730156e-03  5.000000e-01
      vertex   1.083365e-01  6.730156e-03  5.000000e-01
      vertex   9.455892e-02 -9.045908e-03  5.000000e-01
    endloop
  endfacet
  facet normal  0.000000e+00  0.000000e+00  1.000000e+00
    outer loop
      vertex   9.455892e-02 -9.045908e-03  5.000000e-01
      vertex   1.083365e-01  6.730156e-03  5.000000e-01
      vertex   9.455892e-02  9.045908e-03  5.000000e-01
    endloop
  endfacet
  facet normal  0.000000e+00 -0.000000e+00  1.000000e+00
    outer loop
      vertex   9.455892e-02 -9.045908e-03  5.000000e-01
      vertex   9.455892e-02  9.045908e-03  5.000000e-01
      vertex   8.213858e-02 -1.085243e-02  5.000000e-01
    endloop
  endfacet
  facet normal  0.000000e+00  0.000000e+00  1.000000e+00
    outer loop
      vertex   8.213858e-02 -1.085243e-02  5.000000e-01
      vertex   9.455892e-02  9.045908e-03  5.000000e-01
      vertex   8.213858e-02  1.085243e-02  5.000000e-01
    endloop
  endfacet
  facet normal  0.000000e+00 -0.000000e+00  1.000000e+00
    outer loop
      vertex   8.213858e-02 -1.085243e-02  5.000000e-01
      vertex   8.213858e-02  1.085243e-02  5.000000e-01
      vertex   7.114668e-02 -1.218769e-02  5.000000e-01
    endloop
  endfacet
  facet normal  0.000000e+00  0.000000e+00  1.000000e+00
    outer loop
      vertex   7.114668e-02 -1.218769e-02  5.000000e-01
      vertex   8.213858e-02  1.085243e-02  5.000000e-01
      vertex   7.114668e-02  1.218769e-02  5.000000e-01
    endloop
  endfacet
  facet normal  0.000000e+00 -0.000000e+00  1.000000e+00
    outer loop
      vertex   7.114668e-02 -1.218769e-02  5.000000e-01
      vertex   7.114668e-02  1.218769e-02  5.000000e-01
      vertex   6.023676e-02 -1.320754e-02  5.000000e-01
    endloop
  endfacet
  facet normal  0.000000e+00  0.000000e+00  1.000000e+00
    outer loop
      vertex   6.023676e-02 -1.320754e-02  5.000000e-01
      vertex   7.114668e-02  1.218769e-02  5.000000e-01
      vertex   6.023676e-02  1.320754e-02  5.000000e-01
    endloop
  endfacet
  facet normal  0.000000e+00 -0.000000e+00  1.000000e+00
    outer loop
      vertex   6.023676e-02 -1.320754e-02  5.000000e-01
      vertex   6.023676e-02  1.320754e-02  5.000000e-01
      vertex   5.149468e-02 -1.374714e-02  5.000000e-01
    endloop
  endfacet
  facet normal  0.000000e+00  0.000000e+00  1.000000e+00
    outer loop
      vertex   5.149468e-02 -1.374714e-02  5.000000e-01
      vertex   6.023676e-02  1.320754e-02  5.000000e-01
      vertex   5.149468e-02  1.374714e-02  5.000000e-01
    endloop
  endfacet
  facet normal  0.000000e+00 -0.000000e+00  1.000000e+00
    outer loop
      vertex   5.149468e-02 -1.374714e-02  5.000000e-01
      vertex   5.149468e-02  1.374714e-02  5.000000e-01
      vertex   4.366023e-02 -1.396571e-02  5.000000e-01
    endloop
  endfacet
  facet normal  0.000000e+00  0.000000e+00  1.000000e+00
    outer loop
      vertex   4.366023e-02 -1.396571e-02  5.000000e-01
      vertex   5.149468e-02  1.374714e-02  5.000000e-01
      vertex   4.366023e-02  1.396571e-02  5.000000e-01
    endloop
  endfacet
  facet normal  0.000000e+00 -0.000000e+00  1.000000e+00
    outer loop
      vertex   4.366023e-02 -1.396571e-02  5.000000e-01
      vertex   4.366023e-02  1.396571e-02  5.000000e-01
      vertex   3.668253e-02 -1.389686e-02  5.000000e-01
    endloop
  endfacet
  facet normal  0.000000e+00  0.000000e+00  1.000000e+00
    outer loop
      vertex   3.668253e-02 -1.389686e-02  5.000000e-01
      vertex   4.366023e-02  1.396571e-02  5.000000e-01
      vertex   3.668253e-02  1.389686e-02  5.000000e-01
    endloop
  endfacet
  facet normal  0.000000e+00 -0.000000e+00  1.000000e+00
    outer loop
      vertex   3.668253e-02 -1.389686e-02  5.000000e-01
      vertex   3.668253e-02  1.389686e-02  5.000000e-01
      vertex   2.984131e-02 -1.352610e-02  5.000000e-01
    endloop
  endfacet
  facet normal  0.000000e+00  0.000000e+00  1.000000e+00
    outer loop
      vertex   3.668253e-02  1.389686e-02  5.000000e-01
      vertex   2.984131e-02  1.352610e-02  5.000000e-01
      vertex   2.984131e-02 -1.352610e-02  5.000000e-01
    endloop
  endfacet
  facet normal  0.000000e+00 -0.000000e+00  1.000000e+00
    outer loop
      vertex   2.984131e-02 -1.352610e-02  5.000000e-01
      vertex   2.984131e-02  1.352610e-02  5.000000e-01
      vertex   2.434994e-02  1.295337e-02  5.000000e-01
    endloop
  endfacet
  facet normal  0.000000e+00  0.000000e+00  1.000000e+00
    outer loop
      vertex   2.984131e-02 -1.352610e-02  5.000000e-01
      vertex   2.434994e-02  1.295337e-02  5.000000e-01
      vertex   2.434994e-02 -1.295337e-02  5.000000e-01
    endloop
  endfacet
  facet normal  0.000000e+00 -0.000000e+00  1.000000e+00
    outer loop
      vertex   2.434994e-02 -1.295337e-02  5.000000e-01
      vertex   2.434994e-02  1.295337e-02  5.000000e-01
      vertex   1.953476e-02  1.219131e-02  5.000000e-01
    endloop
  endfacet
  facet normal  0.000000e+00  0.000000e+00  1.000000e+00
    outer loop
      vertex   2.434994e-02 -1.295337e-02  5.000000e-01
      vertex   1.953476e-02  1.219131e-02  5.000000e-01
      vertex   1.953476e-02 -1.219131e-02  5.000000e-01
    endloop
  endfacet
  facet normal  0.000000e+00 -0.000000e+00  1.000000e+00
    outer loop
      vertex   1.953476e-02 -1.219131e-02  5.000000e-01
      vertex   1.953476e-02  1.219131e-02  5.000000e-01
      vertex   1.538357e-02  1.128081e-02  5.000000e-01
    endloop
  endfacet
  facet normal  0.000000e+00  0.000000e+00  1.000000e+00
    outer loop
      vertex   1.953476e-02 -1.219131e-02  5.000000e-01
      vertex   1.538357e-02  1.128081e-02  5.000000e-01
      vertex   1.538357e-02 -1.128081e-02  5.000000e-01
    endloop
  endfacet
  facet normal  0.000000e+00 -0.000000e+00  1.000000e+00
    outer loop
      vertex   1.538357e-02 -1.128081e-02  5.000000e-01
      vertex   1.538357e-02  1.128081e-02  5.000000e-01
      vertex   1.169705e-02  1.020621e-02  5.000000e-01
    endloop
  endfacet
  facet normal -0.000000e+00  0.000000e+00  1.000000e+00
    outer loop
      vertex   2.522662e-03 -5.239978e-03  5.000000e-01
      vertex   3.465205e-03 -6.066178e-03  5.000000e-01
      vertex   1.169705e-02  1.020621e-02  5.000000e-01
    endloop
  endfacet
  facet normal  0.000000e+00  0.000000e+00  1.000000e+00
    outer loop
      vertex   1.169705e-02  1.020621e-02  5.000000e-01
      vertex   3.465205e-03 -6.066178e-03  5.000000e-01
      vertex   4.738631e-03 -6.986907e-03  5.000000e-01
    endloop
  endfacet
  facet normal  0.000000e+00  0.000000e+00  1.000000e+00
    outer loop
      vertex   1.169705e-02  1.020621e-02  5.000000e-01
      vertex   4.738631e-03 -6.986907e-03  5.000000e-01
      vertex   6.110451e-03 -7.813895e-03  5.000000e-01
    endloop
  endfacet
  facet normal -0.000000e+00  0.000000e+00  1.000000e+00
    outer loop
      vertex   6.110451e-03 -7.813895e-03  5.000000e-01
      vertex   8.417558e-03 -8.950823e-03  5.000000e-01
      vertex   1.169705e-02  1.020621e-02  5.000000e-01
    endloop
  endfacet
  facet normal  0.000000e+00  0.000000e+00  1.000000e+00
    outer loop
      vertex   1.169705e-02  1.020621e-02  5.000000e-01
      vertex   8.417558e-03 -8.950823e-03  5.000000e-01
      vertex   1.169705e-02 -1.020621e-02  5.000000e-01
    endloop
  endfacet
  facet normal  0.000000e+00  0.000000e+00  1.000000e+00
    outer loop
      vertex   1.169705e-02  1.020621e-02  5.000000e-01
      vertex   1.169705e-02 -1.020621e-02  5.000000e-01
      vertex   1.538357e-02 -1.128081e-02  5.000000e-01
    endloop
  endfacet
  facet normal  0.000000e+00 -0.000000e+00  1.000000e+00
    outer loop
      vertex   2.522662e-03 -5.239978e-03  5.000000e-01
      vertex   1.169705e-02  1.020621e-02  5.000000e-01
      vertex   1.897142e-03 -4.585467e-03  5.000000e-01
    endloop
  endfacet
  facet normal  0.000000e+00  0.000000e+00  1.000000e+00
    outer loop
      vertex   1.897142e-03 -4.585467e-03  5.000000e-01
      vertex   1.169705e-02  1.020621e-02  5.000000e-01
      vertex   8.417558e-03  8.950823e-03  5.000000e-01
    endloop
  endfacet
  facet normal  0.000000e+00  0.000000e+00  1.000000e+00
    outer loop
      vertex   1.897142e-03 -4.585467e-03  5.000000e-01
      vertex   8.417558e-03  8.950823e-03  5.000000e-01
      vertex   6.110451e-03  7.813895e-03  5.000000e-01
    endloop
  endfacet
  facet normal  0.000000e+00  0.000000e+00  1.000000e+00
    outer loop
      vertex   6.110451e-03  7.813895e-03  5.000000e-01
      vertex   4.738631e-03  6.986907e-03  5.000000e-01
      vertex   1.897142e-03 -4.585467e-03  5.000000e-01
    endloop
  endfacet
  facet normal  0.000000e+00  0.000000e+00  1.000000e+00
    outer loop
      vertex   1.897142e-03 -4.585467e-03  5.000000e-01
      vertex   4.738631e-03  6.986907e-03  5.000000e-01
      vertex   3.465205e-03  6.066178e-03  5.000000e-01
    endloop
  endfacet
  facet normal  0.000000e+00  0.000000e+00  1.000000e+00
    outer loop
      vertex   1.897142e-03 -4.585467e-03  5.000000e-01
      vertex   3.465205e-03  6.066178e-03  5.000000e-01
      vertex   2.522662e-03  5.239978e-03  5.000000e-01
    endloop
  endfacet
  facet normal  0.000000e+00  0.000000e+00  1.000000e+00
    outer loop
      vertex   2.522662e-03  5.239978e-03  5.000000e-01
      vertex   1.897142e-03  4.585467e-03  5.000000e-01
      vertex   1.897142e-03 -4.585467e-03  5.000000e-01
    endloop
  endfacet
  facet normal  0.000000e+00 -0.000000e+00  1.000000e+00
    outer loop
      vertex   1.897142e-03 -4.585467e-03  5.000000e-01
      vertex   1.897142e-03  4.585467e-03  5.000000e-01
      vertex   1.397895e-03  3.968012e-03  5.000000e-01
    endloop
  endfacet
  facet normal  0.000000e+00  0.000000e+00  1.000000e+00
    outer loop
      vertex   1.897142e-03 -4.585467e-03  5.000000e-01
      vertex   1.397895e-03  3.968012e-03  5.000000e-01
      vertex   1.397895e-03 -3.968012e-03  5.000000e-01
    endloop
  endfacet
  facet normal  0.000000e+00 -0.000000e+00  1.000000e+00
    outer loop
      vertex   1.397895e-03 -3.968012e-03  5.000000e-01
      vertex   1.397895e-03  3.968012e-03  5.000000e-01
      vertex   9.991417e-04  3.379303e-03  5.000000e-01
    endloop
  endfacet
  facet normal  0.000000e+00  0.000000e+00  1.000000e+00
    outer loop
      vertex   1.397895e-03 -3.968012e-03  5.000000e-01
      vertex   9.991417e-04  3.379303e-03  5.000000e-01
      vertex   9.991417e-04 -3.379303e-03  5.000000e-01
    endloop
  endfacet
  facet normal  0.000000e+00 -0.000000e+00  1.000000e+00
    outer loop
      vertex   9.991417e-04 -3.379303e-03  5.000000e-01
      vertex   9.991417e-04  3.379303e-03  5.000000e-01
      vertex   6.819355e-04  2.810793e-03  5.000000e-01
    endloop
  endfacet
  facet normal  0.000000e+00  0.000000e+00  1.000000e+00
    outer loop
      vertex   9.991417e-04 -3.379303e-03  5.000000e-01
      vertex   6.819355e-04  2.810793e-03  5.000000e-01
      vertex   6.819355e-04 -2.810793e-03  5.000000e-01
    endloop
  endfacet
  facet normal  0.000000e+00 -0.000000e+00  1.000000e+00
    outer loop
      vertex   6.819355e-04 -2.810793e-03  5.000000e-01
      vertex   6.819355e-04  2.810793e-03  5.000000e-01
      vertex   4.331715e-04  2.254552e-03  5.000000e-01
    endloop
  endfacet
  facet normal  0.000000e+00  0.000000e+00  1.000000e+00
    outer loop
      vertex   6.819355e-04 -2.810793e-03  5.000000e-01
      vertex   4.331715e-04  2.254552e-03  5.000000e-01
      vertex   4.331715e-04 -2.254552e-03  5.000000e-01
    endloop
  endfacet
  facet normal  0.000000e+00 -0.000000e+00  1.000000e+00
    outer loop
      vertex   4.331715e-04 -2.254552e-03  5.000000e-01
      vertex   4.331715e-04  2.254552e-03  5.000000e-01
      vertex   2.440183e-04 -1.702609e-03  5.000000e-01
    endloop
  endfacet
  facet normal  0.000000e+00  0.000000e+00  1.000000e+00
    outer loop
      vertex   2.440183e-04 -1.702609e-03  5.000000e-01
      vertex   4.331715e-04  2.254552e-03  5.000000e-01
      vertex   2.440183e-04  1.702609e-03  5.000000e-01
    endloop
  endfacet
  facet normal  0.000000e+00 -0.000000e+00  1.000000e+00
    outer loop
      vertex   2.440183e-04 -1.702609e-03  5.000000e-01
      vertex   2.440183e-04  1.702609e-03  5.000000e-01
      vertex   1.087322e-04  1.143303e-03  5.000000e-01
    endloop
  endfacet
  facet normal -0.000000e+00 -0.000000e+00  1.000000e+00
    outer loop
      vertex   2.708756e-05 -5.743274e-04  5.000000e-01
      vertex   1.087322e-04 -1.143303e-03  5.000000e-01
      vertex  -2.891567e-20  4.406198e-19  5.000000e-01
    endloop
  endfacet
  facet normal  0.000000e+00  0.000000e+00  1.000000e+00
    outer loop
      vertex  -2.891567e-20  4.406198e-19  5.000000e-01
      vertex   1.087322e-04 -1.143303e-03  5.000000e-01
      vertex   2.440183e-04 -1.702609e-03  5.000000e-01
    endloop
  endfacet
  facet normal -0.000000e+00  0.000000e+00  1.000000e+00
    outer loop
      vertex  -2.891567e-20  4.406198e-19  5.000000e-01
      vertex   2.440183e-04 -1.702609e-03  5.000000e-01
      vertex   2.708756e-05  5.743274e-04  5.000000e-01
    endloop
  endfacet
  facet normal -0.000000e+00  0.000000e+00  1.000000e+00
    outer loop
      vertex   2.708756e-05  5.743274e-04  5.000000e-01
      vertex   2.440183e-04 -1.702609e-03  5.000000e-01
      vertex   1.087322e-04  1.143303e-03  5.000000e-01
    endloop
  endfacet
  facet normal  1.000000e+00  0.000000e+00  0.000000e+00
    outer loop
      vertex   1.388344e-01 -4.948797e-04 -5.000000e-01
      vertex   1.388344e-01  4.948797e-04 -5.000000e-01
      vertex   1.388344e-01 -4.948797e-04  5.000000e-01
    endloop
  endfacet
  facet normal  1.000000e+00 -0.000000e+00  0.000000e+00
    outer loop
      vertex   1.388344e-01 -4.948797e-04  5.000000e-01
      vertex   1.388344e-01  4.948797e-04 -5.000000e-01
      vertex   1.388344e-01  4.948797e-04  5.000000e-01
    endloop
  endfacet
endsolid vcg
