solid foilInBox
  facet normal -1.000000e+000 0.000000e+000 0.000000e+000
    outer loop
      vertex  -7.500000e-001 -7.500000e-001 7.500000e-001
      vertex  -7.500000e-001 7.500000e-001 7.500000e-001
      vertex  -7.500000e-001 -7.500000e-001 -7.500000e-001
    endloop
  endfacet
  facet normal -1.000000e+000 0.000000e+000 0.000000e+000
    outer loop
      vertex  -7.500000e-001 -7.500000e-001 -7.500000e-001
      vertex  -7.500000e-001 7.500000e-001 7.500000e-001
      vertex  -7.500000e-001 7.500000e-001 -7.500000e-001
    endloop
  endfacet
  facet normal -0.000000e+000 -1.000000e+000 -0.000000e+000
    outer loop
      vertex  7.500000e-001 -7.500000e-001 7.500000e-001
      vertex  -7.500000e-001 -7.500000e-001 7.500000e-001
      vertex  7.500000e-001 -7.500000e-001 -7.500000e-001
    endloop
  endfacet
  facet normal 0.000000e+000 -1.000000e+000 0.000000e+000
    outer loop
      vertex  7.500000e-001 -7.500000e-001 -7.500000e-001
      vertex  -7.500000e-001 -7.500000e-001 7.500000e-001
      vertex  -7.500000e-001 -7.500000e-001 -7.500000e-001
    endloop
  endfacet
  facet normal 1.000000e+000 0.000000e+000 0.000000e+000
    outer loop
      vertex  7.500000e-001 7.500000e-001 7.500000e-001
      vertex  7.500000e-001 -7.500000e-001 7.500000e-001
      vertex  7.500000e-001 7.500000e-001 -7.500000e-001
    endloop
  endfacet
  facet normal 1.000000e+000 0.000000e+000 0.000000e+000
    outer loop
      vertex  7.500000e-001 7.500000e-001 -7.500000e-001
      vertex  7.500000e-001 -7.500000e-001 7.500000e-001
      vertex  7.500000e-001 -7.500000e-001 -7.500000e-001
    endloop
  endfacet
  facet normal -0.000000e+000 1.000000e+000 0.000000e+000
    outer loop
      vertex  -7.500000e-001 7.500000e-001 7.500000e-001
      vertex  7.500000e-001 7.500000e-001 7.500000e-001
      vertex  -7.500000e-001 7.500000e-001 -7.500000e-001
    endloop
  endfacet
  facet normal 0.000000e+000 1.000000e+000 0.000000e+000
    outer loop
      vertex  -7.500000e-001 7.500000e-001 -7.500000e-001
      vertex  7.500000e-001 7.500000e-001 7.500000e-001
      vertex  7.500000e-001 7.500000e-001 -7.500000e-001
    endloop
  endfacet
  facet normal 0.000000e+000 -0.000000e+000 1.000000e+000
    outer loop
      vertex  7.500000e-001 -7.500000e-001 7.500000e-001
      vertex  7.500000e-001 7.500000e-001 7.500000e-001
      vertex  -7.500000e-001 -7.500000e-001 7.500000e-001
    endloop
  endfacet
  facet normal 0.000000e+000 0.000000e+000 1.000000e+000
    outer loop
      vertex  -7.500000e-001 -7.500000e-001 7.500000e-001
      vertex  7.500000e-001 7.500000e-001 7.500000e-001
      vertex  -7.500000e-001 7.500000e-001 7.500000e-001
    endloop
  endfacet
  facet normal -0.000000e+000 -0.000000e+000 -1.000000e+000
    outer loop
      vertex  7.500000e-001 7.500000e-001 -7.500000e-001
      vertex  7.500000e-001 -7.500000e-001 -7.500000e-001
      vertex  -7.500000e-001 7.500000e-001 -7.500000e-001
    endloop
  endfacet
  facet normal 0.000000e+000 0.000000e+000 -1.000000e+000
    outer loop
      vertex  -7.500000e-001 7.500000e-001 -7.500000e-001
      vertex  7.500000e-001 -7.500000e-001 -7.500000e-001
      vertex  -7.500000e-001 -7.500000e-001 -7.500000e-001
    endloop
  endfacet
  facet normal -9.969561e-001 -7.796554e-002 -2.717523e-016
    outer loop
      vertex  -6.961383e-002 -1.942890e-015 5.000000e-001
      vertex  -6.961383e-002 1.542653e-015 -5.000000e-001
      vertex  -6.954000e-002 -9.440462e-004 -5.000000e-001
    endloop
  endfacet
  facet normal -9.969561e-001 -7.796554e-002 0.000000e+000
    outer loop
      vertex  -6.961383e-002 -1.942890e-015 5.000000e-001
      vertex  -6.954000e-002 -9.440462e-004 -5.000000e-001
      vertex  -6.954000e-002 -9.440462e-004 5.000000e-001
    endloop
  endfacet
  facet normal -9.716524e-001 -2.364139e-001 -0.000000e+000
    outer loop
      vertex  -6.954000e-002 -9.440462e-004 5.000000e-001
      vertex  -6.954000e-002 -9.440462e-004 -5.000000e-001
      vertex  -6.930397e-002 -1.914139e-003 -5.000000e-001
    endloop
  endfacet
  facet normal -9.716524e-001 -2.364139e-001 0.000000e+000
    outer loop
      vertex  -6.954000e-002 -9.440462e-004 5.000000e-001
      vertex  -6.930397e-002 -1.914139e-003 -5.000000e-001
      vertex  -6.930397e-002 -1.914139e-003 5.000000e-001
    endloop
  endfacet
  facet normal -9.223337e-001 -3.863943e-001 -0.000000e+000
    outer loop
      vertex  -6.930397e-002 -1.914139e-003 5.000000e-001
      vertex  -6.930397e-002 -1.914139e-003 -5.000000e-001
      vertex  -6.891102e-002 -2.852106e-003 -5.000000e-001
    endloop
  endfacet
  facet normal -9.223337e-001 -3.863943e-001 0.000000e+000
    outer loop
      vertex  -6.930397e-002 -1.914139e-003 5.000000e-001
      vertex  -6.891102e-002 -2.852106e-003 -5.000000e-001
      vertex  -6.891102e-002 -2.852106e-003 5.000000e-001
    endloop
  endfacet
  facet normal -8.554111e-001 -5.179498e-001 -0.000000e+000
    outer loop
      vertex  -6.891102e-002 -2.852106e-003 5.000000e-001
      vertex  -6.891102e-002 -2.852106e-003 -5.000000e-001
      vertex  -6.833605e-002 -3.801698e-003 -5.000000e-001
    endloop
  endfacet
  facet normal -8.554111e-001 -5.179498e-001 0.000000e+000
    outer loop
      vertex  -6.891102e-002 -2.852106e-003 5.000000e-001
      vertex  -6.833605e-002 -3.801698e-003 -5.000000e-001
      vertex  -6.833605e-002 -3.801698e-003 5.000000e-001
    endloop
  endfacet
  facet normal -7.660743e-001 -6.427520e-001 -0.000000e+000
    outer loop
      vertex  -6.833605e-002 -3.801698e-003 5.000000e-001
      vertex  -6.833605e-002 -3.801698e-003 -5.000000e-001
      vertex  -6.731979e-002 -5.012943e-003 -5.000000e-001
    endloop
  endfacet
  facet normal -7.660743e-001 -6.427520e-001 0.000000e+000
    outer loop
      vertex  -6.833605e-002 -3.801698e-003 5.000000e-001
      vertex  -6.731979e-002 -5.012943e-003 -5.000000e-001
      vertex  -6.731979e-002 -5.012943e-003 5.000000e-001
    endloop
  endfacet
  facet normal -6.531520e-001 -7.572269e-001 -0.000000e+000
    outer loop
      vertex  -6.731979e-002 -5.012943e-003 5.000000e-001
      vertex  -6.731979e-002 -5.012943e-003 -5.000000e-001
      vertex  -6.568789e-002 -6.420552e-003 -5.000000e-001
    endloop
  endfacet
  facet normal -6.531520e-001 -7.572269e-001 0.000000e+000
    outer loop
      vertex  -6.731979e-002 -5.012943e-003 5.000000e-001
      vertex  -6.568789e-002 -6.420552e-003 -5.000000e-001
      vertex  -6.568789e-002 -6.420552e-003 5.000000e-001
    endloop
  endfacet
  facet normal -5.236447e-001 -8.519367e-001 -0.000000e+000
    outer loop
      vertex  -6.568789e-002 -6.420552e-003 5.000000e-001
      vertex  -6.568789e-002 -6.420552e-003 -5.000000e-001
      vertex  -6.286309e-002 -8.156820e-003 -5.000000e-001
    endloop
  endfacet
  facet normal -5.236447e-001 -8.519367e-001 0.000000e+000
    outer loop
      vertex  -6.568789e-002 -6.420552e-003 5.000000e-001
      vertex  -6.286309e-002 -8.156820e-003 -5.000000e-001
      vertex  -6.286309e-002 -8.156820e-003 5.000000e-001
    endloop
  endfacet
  facet normal -3.844173e-001 -9.231594e-001 -0.000000e+000
    outer loop
      vertex  -6.286309e-002 -8.156820e-003 5.000000e-001
      vertex  -6.286309e-002 -8.156820e-003 -5.000000e-001
      vertex  -5.804453e-002 -1.016334e-002 -5.000000e-001
    endloop
  endfacet
  facet normal -3.844173e-001 -9.231594e-001 0.000000e+000
    outer loop
      vertex  -6.286309e-002 -8.156820e-003 5.000000e-001
      vertex  -5.804453e-002 -1.016334e-002 -5.000000e-001
      vertex  -5.804453e-002 -1.016334e-002 5.000000e-001
    endloop
  endfacet
  facet normal -2.467653e-001 -9.690753e-001 -0.000000e+000
    outer loop
      vertex  -5.804453e-002 -1.016334e-002 5.000000e-001
      vertex  -5.804453e-002 -1.016334e-002 -5.000000e-001
      vertex  -5.008439e-002 -1.219031e-002 -5.000000e-001
    endloop
  endfacet
  facet normal -2.467653e-001 -9.690753e-001 0.000000e+000
    outer loop
      vertex  -5.804453e-002 -1.016334e-002 5.000000e-001
      vertex  -5.008439e-002 -1.219031e-002 -5.000000e-001
      vertex  -5.008439e-002 -1.219031e-002 5.000000e-001
    endloop
  endfacet
  facet normal -1.077453e-001 -9.941785e-001 -0.000000e+000
    outer loop
      vertex  -5.008439e-002 -1.219031e-002 5.000000e-001
      vertex  -5.008439e-002 -1.219031e-002 -5.000000e-001
      vertex  -3.508423e-002 -1.381597e-002 -5.000000e-001
    endloop
  endfacet
  facet normal -1.077453e-001 -9.941785e-001 0.000000e+000
    outer loop
      vertex  -5.008439e-002 -1.219031e-002 5.000000e-001
      vertex  -3.508423e-002 -1.381597e-002 -5.000000e-001
      vertex  -3.508423e-002 -1.381597e-002 5.000000e-001
    endloop
  endfacet
  facet normal 1.312280e-002 -9.999139e-001 0.000000e+000
    outer loop
      vertex  -3.508423e-002 -1.381597e-002 5.000000e-001
      vertex  -3.508423e-002 -1.381597e-002 -5.000000e-001
      vertex  -1.424291e-002 -1.354245e-002 -5.000000e-001
    endloop
  endfacet
  facet normal 1.312280e-002 -9.999139e-001 0.000000e+000
    outer loop
      vertex  -3.508423e-002 -1.381597e-002 5.000000e-001
      vertex  -1.424291e-002 -1.354245e-002 -5.000000e-001
      vertex  -1.424291e-002 -1.354245e-002 5.000000e-001
    endloop
  endfacet
  facet normal 9.920237e-002 -9.950672e-001 0.000000e+000
    outer loop
      vertex  -1.424291e-002 -1.354245e-002 5.000000e-001
      vertex  -1.424291e-002 -1.354245e-002 -5.000000e-001
      vertex  1.187859e-002 -1.093829e-002 -5.000000e-001
    endloop
  endfacet
  facet normal 9.920237e-002 -9.950672e-001 0.000000e+000
    outer loop
      vertex  -1.424291e-002 -1.354245e-002 5.000000e-001
      vertex  1.187859e-002 -1.093829e-002 -5.000000e-001
      vertex  1.187859e-002 -1.093829e-002 5.000000e-001
    endloop
  endfacet
  facet normal 1.632618e-001 -9.865828e-001 0.000000e+000
    outer loop
      vertex  1.187859e-002 -1.093829e-002 5.000000e-001
      vertex  1.187859e-002 -1.093829e-002 -5.000000e-001
      vertex  4.930552e-002 -4.744802e-003 -5.000000e-001
    endloop
  endfacet
  facet normal 1.632618e-001 -9.865828e-001 0.000000e+000
    outer loop
      vertex  1.187859e-002 -1.093829e-002 5.000000e-001
      vertex  4.930552e-002 -4.744802e-003 -5.000000e-001
      vertex  4.930552e-002 -4.744802e-003 5.000000e-001
    endloop
  endfacet
  facet normal 2.087035e-001 -9.779789e-001 0.000000e+000
    outer loop
      vertex  4.930552e-002 -4.744802e-003 5.000000e-001
      vertex  4.930552e-002 -4.744802e-003 -5.000000e-001
      vertex  6.922054e-002 -4.948797e-004 -5.000000e-001
    endloop
  endfacet
  facet normal 2.087035e-001 -9.779789e-001 0.000000e+000
    outer loop
      vertex  4.930552e-002 -4.744802e-003 5.000000e-001
      vertex  6.922054e-002 -4.948797e-004 -5.000000e-001
      vertex  6.922054e-002 -4.948797e-004 5.000000e-001
    endloop
  endfacet
  facet normal 2.087035e-001 9.779789e-001 0.000000e+000
    outer loop
      vertex  6.922054e-002 4.948797e-004 5.000000e-001
      vertex  6.922054e-002 4.948797e-004 -5.000000e-001
      vertex  4.930552e-002 4.744802e-003 -5.000000e-001
    endloop
  endfacet
  facet normal 2.087035e-001 9.779789e-001 0.000000e+000
    outer loop
      vertex  6.922054e-002 4.948797e-004 5.000000e-001
      vertex  4.930552e-002 4.744802e-003 -5.000000e-001
      vertex  4.930552e-002 4.744802e-003 5.000000e-001
    endloop
  endfacet
  facet normal 1.632618e-001 9.865828e-001 0.000000e+000
    outer loop
      vertex  4.930552e-002 4.744802e-003 5.000000e-001
      vertex  4.930552e-002 4.744802e-003 -5.000000e-001
      vertex  1.187859e-002 1.093829e-002 -5.000000e-001
    endloop
  endfacet
  facet normal 1.632618e-001 9.865828e-001 0.000000e+000
    outer loop
      vertex  4.930552e-002 4.744802e-003 5.000000e-001
      vertex  1.187859e-002 1.093829e-002 -5.000000e-001
      vertex  1.187859e-002 1.093829e-002 5.000000e-001
    endloop
  endfacet
  facet normal 9.920237e-002 9.950672e-001 0.000000e+000
    outer loop
      vertex  1.187859e-002 1.093829e-002 5.000000e-001
      vertex  1.187859e-002 1.093829e-002 -5.000000e-001
      vertex  -1.424291e-002 1.354245e-002 -5.000000e-001
    endloop
  endfacet
  facet normal 9.920237e-002 9.950672e-001 0.000000e+000
    outer loop
      vertex  1.187859e-002 1.093829e-002 5.000000e-001
      vertex  -1.424291e-002 1.354245e-002 -5.000000e-001
      vertex  -1.424291e-002 1.354245e-002 5.000000e-001
    endloop
  endfacet
  facet normal 1.312280e-002 9.999139e-001 0.000000e+000
    outer loop
      vertex  -1.424291e-002 1.354245e-002 5.000000e-001
      vertex  -1.424291e-002 1.354245e-002 -5.000000e-001
      vertex  -3.508423e-002 1.381597e-002 -5.000000e-001
    endloop
  endfacet
  facet normal 1.312280e-002 9.999139e-001 0.000000e+000
    outer loop
      vertex  -1.424291e-002 1.354245e-002 5.000000e-001
      vertex  -3.508423e-002 1.381597e-002 -5.000000e-001
      vertex  -3.508423e-002 1.381597e-002 5.000000e-001
    endloop
  endfacet
  facet normal -1.077453e-001 9.941785e-001 0.000000e+000
    outer loop
      vertex  -3.508423e-002 1.381597e-002 5.000000e-001
      vertex  -3.508423e-002 1.381597e-002 -5.000000e-001
      vertex  -5.008439e-002 1.219031e-002 -5.000000e-001
    endloop
  endfacet
  facet normal -1.077453e-001 9.941785e-001 0.000000e+000
    outer loop
      vertex  -3.508423e-002 1.381597e-002 5.000000e-001
      vertex  -5.008439e-002 1.219031e-002 -5.000000e-001
      vertex  -5.008439e-002 1.219031e-002 5.000000e-001
    endloop
  endfacet
  facet normal -2.467653e-001 9.690753e-001 0.000000e+000
    outer loop
      vertex  -5.008439e-002 1.219031e-002 5.000000e-001
      vertex  -5.008439e-002 1.219031e-002 -5.000000e-001
      vertex  -5.804453e-002 1.016334e-002 -5.000000e-001
    endloop
  endfacet
  facet normal -2.467653e-001 9.690753e-001 0.000000e+000
    outer loop
      vertex  -5.008439e-002 1.219031e-002 5.000000e-001
      vertex  -5.804453e-002 1.016334e-002 -5.000000e-001
      vertex  -5.804453e-002 1.016334e-002 5.000000e-001
    endloop
  endfacet
  facet normal -3.844173e-001 9.231594e-001 0.000000e+000
    outer loop
      vertex  -5.804453e-002 1.016334e-002 5.000000e-001
      vertex  -5.804453e-002 1.016334e-002 -5.000000e-001
      vertex  -6.286309e-002 8.156820e-003 -5.000000e-001
    endloop
  endfacet
  facet normal -3.844173e-001 9.231594e-001 0.000000e+000
    outer loop
      vertex  -5.804453e-002 1.016334e-002 5.000000e-001
      vertex  -6.286309e-002 8.156820e-003 -5.000000e-001
      vertex  -6.286309e-002 8.156820e-003 5.000000e-001
    endloop
  endfacet
  facet normal -5.236447e-001 8.519367e-001 0.000000e+000
    outer loop
      vertex  -6.286309e-002 8.156820e-003 5.000000e-001
      vertex  -6.286309e-002 8.156820e-003 -5.000000e-001
      vertex  -6.568789e-002 6.420552e-003 -5.000000e-001
    endloop
  endfacet
  facet normal -5.236447e-001 8.519367e-001 0.000000e+000
    outer loop
      vertex  -6.286309e-002 8.156820e-003 5.000000e-001
      vertex  -6.568789e-002 6.420552e-003 -5.000000e-001
      vertex  -6.568789e-002 6.420552e-003 5.000000e-001
    endloop
  endfacet
  facet normal -6.531520e-001 7.572269e-001 0.000000e+000
    outer loop
      vertex  -6.568789e-002 6.420552e-003 5.000000e-001
      vertex  -6.568789e-002 6.420552e-003 -5.000000e-001
      vertex  -6.731979e-002 5.012943e-003 -5.000000e-001
    endloop
  endfacet
  facet normal -6.531520e-001 7.572269e-001 0.000000e+000
    outer loop
      vertex  -6.568789e-002 6.420552e-003 5.000000e-001
      vertex  -6.731979e-002 5.012943e-003 -5.000000e-001
      vertex  -6.731979e-002 5.012943e-003 5.000000e-001
    endloop
  endfacet
  facet normal -7.660743e-001 6.427520e-001 0.000000e+000
    outer loop
      vertex  -6.731979e-002 5.012943e-003 5.000000e-001
      vertex  -6.731979e-002 5.012943e-003 -5.000000e-001
      vertex  -6.833605e-002 3.801698e-003 -5.000000e-001
    endloop
  endfacet
  facet normal -7.660743e-001 6.427520e-001 0.000000e+000
    outer loop
      vertex  -6.731979e-002 5.012943e-003 5.000000e-001
      vertex  -6.833605e-002 3.801698e-003 -5.000000e-001
      vertex  -6.833605e-002 3.801698e-003 5.000000e-001
    endloop
  endfacet
  facet normal -8.554111e-001 5.179498e-001 0.000000e+000
    outer loop
      vertex  -6.833605e-002 3.801698e-003 5.000000e-001
      vertex  -6.833605e-002 3.801698e-003 -5.000000e-001
      vertex  -6.891102e-002 2.852106e-003 -5.000000e-001
    endloop
  endfacet
  facet normal -8.554111e-001 5.179498e-001 0.000000e+000
    outer loop
      vertex  -6.833605e-002 3.801698e-003 5.000000e-001
      vertex  -6.891102e-002 2.852106e-003 -5.000000e-001
      vertex  -6.891102e-002 2.852106e-003 5.000000e-001
    endloop
  endfacet
  facet normal -9.223337e-001 3.863943e-001 0.000000e+000
    outer loop
      vertex  -6.891102e-002 2.852106e-003 5.000000e-001
      vertex  -6.891102e-002 2.852106e-003 -5.000000e-001
      vertex  -6.930397e-002 1.914139e-003 -5.000000e-001
    endloop
  endfacet
  facet normal -9.223337e-001 3.863943e-001 0.000000e+000
    outer loop
      vertex  -6.891102e-002 2.852106e-003 5.000000e-001
      vertex  -6.930397e-002 1.914139e-003 -5.000000e-001
      vertex  -6.930397e-002 1.914139e-003 5.000000e-001
    endloop
  endfacet
  facet normal -9.716524e-001 2.364139e-001 0.000000e+000
    outer loop
      vertex  -6.930397e-002 1.914139e-003 5.000000e-001
      vertex  -6.930397e-002 1.914139e-003 -5.000000e-001
      vertex  -6.954000e-002 9.440462e-004 -5.000000e-001
    endloop
  endfacet
  facet normal -9.716524e-001 2.364139e-001 0.000000e+000
    outer loop
      vertex  -6.930397e-002 1.914139e-003 5.000000e-001
      vertex  -6.954000e-002 9.440462e-004 -5.000000e-001
      vertex  -6.954000e-002 9.440462e-004 5.000000e-001
    endloop
  endfacet
  facet normal -9.969561e-001 7.796554e-002 0.000000e+000
    outer loop
      vertex  -6.954000e-002 9.440462e-004 5.000000e-001
      vertex  -6.954000e-002 9.440462e-004 -5.000000e-001
      vertex  -6.961383e-002 1.542653e-015 -5.000000e-001
    endloop
  endfacet
  facet normal -9.969561e-001 7.796554e-002 0.000000e+000
    outer loop
      vertex  -6.954000e-002 9.440462e-004 5.000000e-001
      vertex  -6.961383e-002 1.542653e-015 -5.000000e-001
      vertex  -6.961383e-002 -1.942890e-015 5.000000e-001
    endloop
  endfacet
  facet normal 0.000000e+000 0.000000e+000 1.000000e+000
    outer loop
      vertex  6.930162e-002 -4.687557e-004 5.000000e-001
      vertex  6.937719e-002 -4.294516e-004 5.000000e-001
      vertex  6.944513e-002 -3.780726e-004 5.000000e-001
    endloop
  endfacet
  facet normal 0.000000e+000 -0.000000e+000 1.000000e+000
    outer loop
      vertex  6.955075e-002 -2.451673e-004 5.000000e-001
      vertex  6.958546e-002 -1.673779e-004 5.000000e-001
      vertex  6.922054e-002 -4.948797e-004 5.000000e-001
    endloop
  endfacet
  facet normal 0.000000e+000 0.000000e+000 1.000000e+000
    outer loop
      vertex  6.922054e-002 -4.948797e-004 5.000000e-001
      vertex  6.958546e-002 -1.673779e-004 5.000000e-001
      vertex  6.960669e-002 -8.488225e-005 5.000000e-001
    endloop
  endfacet
  facet normal 0.000000e+000 0.000000e+000 1.000000e+000
    outer loop
      vertex  6.922054e-002 -4.948797e-004 5.000000e-001
      vertex  6.960669e-002 -8.488225e-005 5.000000e-001
      vertex  6.961383e-002 -1.520619e-015 5.000000e-001
    endloop
  endfacet
  facet normal 0.000000e+000 0.000000e+000 1.000000e+000
    outer loop
      vertex  6.937719e-002 4.294516e-004 5.000000e-001
      vertex  6.930162e-002 4.687557e-004 5.000000e-001
      vertex  6.922054e-002 -4.948797e-004 5.000000e-001
    endloop
  endfacet
  facet normal 0.000000e+000 0.000000e+000 1.000000e+000
    outer loop
      vertex  6.922054e-002 -4.948797e-004 5.000000e-001
      vertex  6.930162e-002 4.687557e-004 5.000000e-001
      vertex  6.922054e-002 4.948797e-004 5.000000e-001
    endloop
  endfacet
  facet normal 0.000000e+000 -0.000000e+000 1.000000e+000
    outer loop
      vertex  6.922054e-002 -4.948797e-004 5.000000e-001
      vertex  6.922054e-002 4.948797e-004 5.000000e-001
      vertex  4.930552e-002 -4.744802e-003 5.000000e-001
    endloop
  endfacet
  facet normal 0.000000e+000 0.000000e+000 1.000000e+000
    outer loop
      vertex  4.930552e-002 -4.744802e-003 5.000000e-001
      vertex  6.922054e-002 4.948797e-004 5.000000e-001
      vertex  4.930552e-002 4.744802e-003 5.000000e-001
    endloop
  endfacet
  facet normal 0.000000e+000 -0.000000e+000 1.000000e+000
    outer loop
      vertex  4.930552e-002 -4.744802e-003 5.000000e-001
      vertex  4.930552e-002 4.744802e-003 5.000000e-001
      vertex  1.187859e-002 -1.093829e-002 5.000000e-001
    endloop
  endfacet
  facet normal 0.000000e+000 0.000000e+000 1.000000e+000
    outer loop
      vertex  1.187859e-002 -1.093829e-002 5.000000e-001
      vertex  4.930552e-002 4.744802e-003 5.000000e-001
      vertex  1.187859e-002 1.093829e-002 5.000000e-001
    endloop
  endfacet
  facet normal 0.000000e+000 -0.000000e+000 1.000000e+000
    outer loop
      vertex  1.187859e-002 -1.093829e-002 5.000000e-001
      vertex  1.187859e-002 1.093829e-002 5.000000e-001
      vertex  -1.424291e-002 -1.354245e-002 5.000000e-001
    endloop
  endfacet
  facet normal 0.000000e+000 0.000000e+000 1.000000e+000
    outer loop
      vertex  -1.424291e-002 -1.354245e-002 5.000000e-001
      vertex  1.187859e-002 1.093829e-002 5.000000e-001
      vertex  -1.424291e-002 1.354245e-002 5.000000e-001
    endloop
  endfacet
  facet normal 0.000000e+000 -0.000000e+000 1.000000e+000
    outer loop
      vertex  -1.424291e-002 -1.354245e-002 5.000000e-001
      vertex  -1.424291e-002 1.354245e-002 5.000000e-001
      vertex  -3.508423e-002 -1.381597e-002 5.000000e-001
    endloop
  endfacet
  facet normal 0.000000e+000 0.000000e+000 1.000000e+000
    outer loop
      vertex  -3.508423e-002 -1.381597e-002 5.000000e-001
      vertex  -1.424291e-002 1.354245e-002 5.000000e-001
      vertex  -3.508423e-002 1.381597e-002 5.000000e-001
    endloop
  endfacet
  facet normal 0.000000e+000 -0.000000e+000 1.000000e+000
    outer loop
      vertex  -3.508423e-002 -1.381597e-002 5.000000e-001
      vertex  -3.508423e-002 1.381597e-002 5.000000e-001
      vertex  -5.008439e-002 -1.219031e-002 5.000000e-001
    endloop
  endfacet
  facet normal 0.000000e+000 0.000000e+000 1.000000e+000
    outer loop
      vertex  -5.008439e-002 -1.219031e-002 5.000000e-001
      vertex  -3.508423e-002 1.381597e-002 5.000000e-001
      vertex  -5.008439e-002 1.219031e-002 5.000000e-001
    endloop
  endfacet
  facet normal 0.000000e+000 -0.000000e+000 1.000000e+000
    outer loop
      vertex  -5.008439e-002 -1.219031e-002 5.000000e-001
      vertex  -5.008439e-002 1.219031e-002 5.000000e-001
      vertex  -5.804453e-002 -1.016334e-002 5.000000e-001
    endloop
  endfacet
  facet normal 0.000000e+000 0.000000e+000 1.000000e+000
    outer loop
      vertex  -5.804453e-002 -1.016334e-002 5.000000e-001
      vertex  -5.008439e-002 1.219031e-002 5.000000e-001
      vertex  -5.804453e-002 1.016334e-002 5.000000e-001
    endloop
  endfacet
  facet normal 0.000000e+000 -0.000000e+000 1.000000e+000
    outer loop
      vertex  -5.804453e-002 -1.016334e-002 5.000000e-001
      vertex  -5.804453e-002 1.016334e-002 5.000000e-001
      vertex  -6.286309e-002 -8.156820e-003 5.000000e-001
    endloop
  endfacet
  facet normal 0.000000e+000 -0.000000e+000 1.000000e+000
    outer loop
      vertex  6.930162e-002 -4.687557e-004 5.000000e-001
      vertex  6.944513e-002 -3.780726e-004 5.000000e-001
      vertex  6.922054e-002 -4.948797e-004 5.000000e-001
    endloop
  endfacet
  facet normal 0.000000e+000 0.000000e+000 1.000000e+000
    outer loop
      vertex  6.922054e-002 -4.948797e-004 5.000000e-001
      vertex  6.944513e-002 -3.780726e-004 5.000000e-001
      vertex  6.950354e-002 -3.160633e-004 5.000000e-001
    endloop
  endfacet
  facet normal 0.000000e+000 0.000000e+000 1.000000e+000
    outer loop
      vertex  6.922054e-002 -4.948797e-004 5.000000e-001
      vertex  6.950354e-002 -3.160633e-004 5.000000e-001
      vertex  6.955075e-002 -2.451673e-004 5.000000e-001
    endloop
  endfacet
  facet normal 0.000000e+000 0.000000e+000 1.000000e+000
    outer loop
      vertex  6.961383e-002 -1.520619e-015 5.000000e-001
      vertex  6.960669e-002 8.488225e-005 5.000000e-001
      vertex  6.922054e-002 -4.948797e-004 5.000000e-001
    endloop
  endfacet
  facet normal 0.000000e+000 0.000000e+000 1.000000e+000
    outer loop
      vertex  6.922054e-002 -4.948797e-004 5.000000e-001
      vertex  6.960669e-002 8.488225e-005 5.000000e-001
      vertex  6.958546e-002 1.673779e-004 5.000000e-001
    endloop
  endfacet
  facet normal 0.000000e+000 0.000000e+000 1.000000e+000
    outer loop
      vertex  6.922054e-002 -4.948797e-004 5.000000e-001
      vertex  6.958546e-002 1.673779e-004 5.000000e-001
      vertex  6.955075e-002 2.451673e-004 5.000000e-001
    endloop
  endfacet
  facet normal 0.000000e+000 0.000000e+000 1.000000e+000
    outer loop
      vertex  6.955075e-002 2.451673e-004 5.000000e-001
      vertex  6.950354e-002 3.160633e-004 5.000000e-001
      vertex  6.922054e-002 -4.948797e-004 5.000000e-001
    endloop
  endfacet
  facet normal 0.000000e+000 0.000000e+000 1.000000e+000
    outer loop
      vertex  6.922054e-002 -4.948797e-004 5.000000e-001
      vertex  6.950354e-002 3.160633e-004 5.000000e-001
      vertex  6.944513e-002 3.780726e-004 5.000000e-001
    endloop
  endfacet
  facet normal 0.000000e+000 0.000000e+000 1.000000e+000
    outer loop
      vertex  6.922054e-002 -4.948797e-004 5.000000e-001
      vertex  6.944513e-002 3.780726e-004 5.000000e-001
      vertex  6.937719e-002 4.294516e-004 5.000000e-001
    endloop
  endfacet
  facet normal -0.000000e+000 0.000000e+000 1.000000e+000
    outer loop
      vertex  -6.833605e-002 3.801698e-003 5.000000e-001
      vertex  -6.891102e-002 2.852106e-003 5.000000e-001
      vertex  -5.804453e-002 1.016334e-002 5.000000e-001
    endloop
  endfacet
  facet normal 0.000000e+000 0.000000e+000 1.000000e+000
    outer loop
      vertex  -5.804453e-002 1.016334e-002 5.000000e-001
      vertex  -6.891102e-002 -2.852106e-003 5.000000e-001
      vertex  -6.833605e-002 -3.801698e-003 5.000000e-001
    endloop
  endfacet
  facet normal 0.000000e+000 0.000000e+000 1.000000e+000
    outer loop
      vertex  -5.804453e-002 1.016334e-002 5.000000e-001
      vertex  -6.286309e-002 8.156820e-003 5.000000e-001
      vertex  -6.833605e-002 3.801698e-003 5.000000e-001
    endloop
  endfacet
  facet normal 0.000000e+000 0.000000e+000 1.000000e+000
    outer loop
      vertex  -6.833605e-002 3.801698e-003 5.000000e-001
      vertex  -6.286309e-002 8.156820e-003 5.000000e-001
      vertex  -6.568789e-002 6.420552e-003 5.000000e-001
    endloop
  endfacet
  facet normal 0.000000e+000 0.000000e+000 1.000000e+000
    outer loop
      vertex  -6.833605e-002 3.801698e-003 5.000000e-001
      vertex  -6.568789e-002 6.420552e-003 5.000000e-001
      vertex  -6.731979e-002 5.012943e-003 5.000000e-001
    endloop
  endfacet
  facet normal -0.000000e+000 0.000000e+000 1.000000e+000
    outer loop
      vertex  -6.891102e-002 2.852106e-003 5.000000e-001
      vertex  -6.930397e-002 1.914139e-003 5.000000e-001
      vertex  -5.804453e-002 1.016334e-002 5.000000e-001
    endloop
  endfacet
  facet normal 0.000000e+000 0.000000e+000 1.000000e+000
    outer loop
      vertex  -5.804453e-002 1.016334e-002 5.000000e-001
      vertex  -6.930397e-002 1.914139e-003 5.000000e-001
      vertex  -6.954000e-002 9.440462e-004 5.000000e-001
    endloop
  endfacet
  facet normal 0.000000e+000 0.000000e+000 1.000000e+000
    outer loop
      vertex  -5.804453e-002 1.016334e-002 5.000000e-001
      vertex  -6.954000e-002 9.440462e-004 5.000000e-001
      vertex  -6.961383e-002 -1.942890e-015 5.000000e-001
    endloop
  endfacet
  facet normal -0.000000e+000 0.000000e+000 1.000000e+000
    outer loop
      vertex  -6.961383e-002 -1.942890e-015 5.000000e-001
      vertex  -6.954000e-002 -9.440462e-004 5.000000e-001
      vertex  -5.804453e-002 1.016334e-002 5.000000e-001
    endloop
  endfacet
  facet normal 0.000000e+000 0.000000e+000 1.000000e+000
    outer loop
      vertex  -5.804453e-002 1.016334e-002 5.000000e-001
      vertex  -6.954000e-002 -9.440462e-004 5.000000e-001
      vertex  -6.930397e-002 -1.914139e-003 5.000000e-001
    endloop
  endfacet
  facet normal 0.000000e+000 0.000000e+000 1.000000e+000
    outer loop
      vertex  -5.804453e-002 1.016334e-002 5.000000e-001
      vertex  -6.930397e-002 -1.914139e-003 5.000000e-001
      vertex  -6.891102e-002 -2.852106e-003 5.000000e-001
    endloop
  endfacet
  facet normal -0.000000e+000 0.000000e+000 1.000000e+000
    outer loop
      vertex  -6.833605e-002 -3.801698e-003 5.000000e-001
      vertex  -6.731979e-002 -5.012943e-003 5.000000e-001
      vertex  -5.804453e-002 1.016334e-002 5.000000e-001
    endloop
  endfacet
  facet normal 0.000000e+000 0.000000e+000 1.000000e+000
    outer loop
      vertex  -5.804453e-002 1.016334e-002 5.000000e-001
      vertex  -6.731979e-002 -5.012943e-003 5.000000e-001
      vertex  -6.568789e-002 -6.420552e-003 5.000000e-001
    endloop
  endfacet
  facet normal 0.000000e+000 0.000000e+000 1.000000e+000
    outer loop
      vertex  -5.804453e-002 1.016334e-002 5.000000e-001
      vertex  -6.568789e-002 -6.420552e-003 5.000000e-001
      vertex  -6.286309e-002 -8.156820e-003 5.000000e-001
    endloop
  endfacet
  facet normal -0.000000e+000 0.000000e+000 -1.000000e+000
    outer loop
      vertex  6.961383e-002 1.964924e-015 -5.000000e-001
      vertex  6.922054e-002 -4.948797e-004 -5.000000e-001
      vertex  6.960669e-002 8.488225e-005 -5.000000e-001
    endloop
  endfacet
  facet normal -0.000000e+000 0.000000e+000 -1.000000e+000
    outer loop
      vertex  6.960669e-002 8.488225e-005 -5.000000e-001
      vertex  6.922054e-002 -4.948797e-004 -5.000000e-001
      vertex  6.958546e-002 1.673779e-004 -5.000000e-001
    endloop
  endfacet
  facet normal -0.000000e+000 -0.000000e+000 -1.000000e+000
    outer loop
      vertex  6.922054e-002 4.948797e-004 -5.000000e-001
      vertex  6.922054e-002 -4.948797e-004 -5.000000e-001
      vertex  4.930552e-002 4.744802e-003 -5.000000e-001
    endloop
  endfacet
  facet normal 0.000000e+000 0.000000e+000 -1.000000e+000
    outer loop
      vertex  4.930552e-002 4.744802e-003 -5.000000e-001
      vertex  6.922054e-002 -4.948797e-004 -5.000000e-001
      vertex  4.930552e-002 -4.744802e-003 -5.000000e-001
    endloop
  endfacet
  facet normal -0.000000e+000 -0.000000e+000 -1.000000e+000
    outer loop
      vertex  4.930552e-002 4.744802e-003 -5.000000e-001
      vertex  4.930552e-002 -4.744802e-003 -5.000000e-001
      vertex  1.187859e-002 1.093829e-002 -5.000000e-001
    endloop
  endfacet
  facet normal 0.000000e+000 0.000000e+000 -1.000000e+000
    outer loop
      vertex  1.187859e-002 1.093829e-002 -5.000000e-001
      vertex  4.930552e-002 -4.744802e-003 -5.000000e-001
      vertex  1.187859e-002 -1.093829e-002 -5.000000e-001
    endloop
  endfacet
  facet normal -0.000000e+000 -0.000000e+000 -1.000000e+000
    outer loop
      vertex  1.187859e-002 1.093829e-002 -5.000000e-001
      vertex  1.187859e-002 -1.093829e-002 -5.000000e-001
      vertex  -1.424291e-002 1.354245e-002 -5.000000e-001
    endloop
  endfacet
  facet normal 0.000000e+000 0.000000e+000 -1.000000e+000
    outer loop
      vertex  -1.424291e-002 1.354245e-002 -5.000000e-001
      vertex  1.187859e-002 -1.093829e-002 -5.000000e-001
      vertex  -1.424291e-002 -1.354245e-002 -5.000000e-001
    endloop
  endfacet
  facet normal -0.000000e+000 -0.000000e+000 -1.000000e+000
    outer loop
      vertex  -1.424291e-002 1.354245e-002 -5.000000e-001
      vertex  -1.424291e-002 -1.354245e-002 -5.000000e-001
      vertex  -3.508423e-002 1.381597e-002 -5.000000e-001
    endloop
  endfacet
  facet normal 0.000000e+000 0.000000e+000 -1.000000e+000
    outer loop
      vertex  -3.508423e-002 1.381597e-002 -5.000000e-001
      vertex  -1.424291e-002 -1.354245e-002 -5.000000e-001
      vertex  -3.508423e-002 -1.381597e-002 -5.000000e-001
    endloop
  endfacet
  facet normal 0.000000e+000 -0.000000e+000 -1.000000e+000
    outer loop
      vertex  -3.508423e-002 1.381597e-002 -5.000000e-001
      vertex  -3.508423e-002 -1.381597e-002 -5.000000e-001
      vertex  -5.008439e-002 1.219031e-002 -5.000000e-001
    endloop
  endfacet
  facet normal 0.000000e+000 0.000000e+000 -1.000000e+000
    outer loop
      vertex  6.922054e-002 4.948797e-004 -5.000000e-001
      vertex  6.930162e-002 4.687557e-004 -5.000000e-001
      vertex  6.922054e-002 -4.948797e-004 -5.000000e-001
    endloop
  endfacet
  facet normal 0.000000e+000 0.000000e+000 -1.000000e+000
    outer loop
      vertex  6.922054e-002 -4.948797e-004 -5.000000e-001
      vertex  6.930162e-002 4.687557e-004 -5.000000e-001
      vertex  6.937719e-002 4.294516e-004 -5.000000e-001
    endloop
  endfacet
  facet normal 0.000000e+000 0.000000e+000 -1.000000e+000
    outer loop
      vertex  6.922054e-002 -4.948797e-004 -5.000000e-001
      vertex  6.937719e-002 4.294516e-004 -5.000000e-001
      vertex  6.944513e-002 3.780726e-004 -5.000000e-001
    endloop
  endfacet
  facet normal 0.000000e+000 0.000000e+000 -1.000000e+000
    outer loop
      vertex  6.961383e-002 1.964924e-015 -5.000000e-001
      vertex  6.960669e-002 -8.488225e-005 -5.000000e-001
      vertex  6.922054e-002 -4.948797e-004 -5.000000e-001
    endloop
  endfacet
  facet normal 0.000000e+000 0.000000e+000 -1.000000e+000
    outer loop
      vertex  6.922054e-002 -4.948797e-004 -5.000000e-001
      vertex  6.960669e-002 -8.488225e-005 -5.000000e-001
      vertex  6.958546e-002 -1.673779e-004 -5.000000e-001
    endloop
  endfacet
  facet normal 0.000000e+000 0.000000e+000 -1.000000e+000
    outer loop
      vertex  6.922054e-002 -4.948797e-004 -5.000000e-001
      vertex  6.958546e-002 -1.673779e-004 -5.000000e-001
      vertex  6.955075e-002 -2.451673e-004 -5.000000e-001
    endloop
  endfacet
  facet normal -0.000000e+000 0.000000e+000 -1.000000e+000
    outer loop
      vertex  6.937719e-002 -4.294516e-004 -5.000000e-001
      vertex  6.930162e-002 -4.687557e-004 -5.000000e-001
      vertex  6.944513e-002 -3.780726e-004 -5.000000e-001
    endloop
  endfacet
  facet normal 0.000000e+000 0.000000e+000 -1.000000e+000
    outer loop
      vertex  6.944513e-002 -3.780726e-004 -5.000000e-001
      vertex  6.930162e-002 -4.687557e-004 -5.000000e-001
      vertex  6.922054e-002 -4.948797e-004 -5.000000e-001
    endloop
  endfacet
  facet normal -0.000000e+000 0.000000e+000 -1.000000e+000
    outer loop
      vertex  6.944513e-002 -3.780726e-004 -5.000000e-001
      vertex  6.922054e-002 -4.948797e-004 -5.000000e-001
      vertex  6.950354e-002 -3.160633e-004 -5.000000e-001
    endloop
  endfacet
  facet normal -0.000000e+000 0.000000e+000 -1.000000e+000
    outer loop
      vertex  6.950354e-002 -3.160633e-004 -5.000000e-001
      vertex  6.922054e-002 -4.948797e-004 -5.000000e-001
      vertex  6.955075e-002 -2.451673e-004 -5.000000e-001
    endloop
  endfacet
  facet normal 0.000000e+000 -0.000000e+000 -1.000000e+000
    outer loop
      vertex  6.944513e-002 3.780726e-004 -5.000000e-001
      vertex  6.950354e-002 3.160633e-004 -5.000000e-001
      vertex  6.922054e-002 -4.948797e-004 -5.000000e-001
    endloop
  endfacet
  facet normal 0.000000e+000 0.000000e+000 -1.000000e+000
    outer loop
      vertex  6.922054e-002 -4.948797e-004 -5.000000e-001
      vertex  6.950354e-002 3.160633e-004 -5.000000e-001
      vertex  6.955075e-002 2.451673e-004 -5.000000e-001
    endloop
  endfacet
  facet normal 0.000000e+000 0.000000e+000 -1.000000e+000
    outer loop
      vertex  6.922054e-002 -4.948797e-004 -5.000000e-001
      vertex  6.955075e-002 2.451673e-004 -5.000000e-001
      vertex  6.958546e-002 1.673779e-004 -5.000000e-001
    endloop
  endfacet
  facet normal 0.000000e+000 0.000000e+000 -1.000000e+000
    outer loop
      vertex  -5.804453e-002 1.016334e-002 -5.000000e-001
      vertex  -6.891102e-002 2.852106e-003 -5.000000e-001
      vertex  -6.833605e-002 3.801698e-003 -5.000000e-001
    endloop
  endfacet
  facet normal 0.000000e+000 0.000000e+000 -1.000000e+000
    outer loop
      vertex  -3.508423e-002 -1.381597e-002 -5.000000e-001
      vertex  -5.008439e-002 -1.219031e-002 -5.000000e-001
      vertex  -5.008439e-002 1.219031e-002 -5.000000e-001
    endloop
  endfacet
  facet normal 0.000000e+000 -0.000000e+000 -1.000000e+000
    outer loop
      vertex  -5.008439e-002 1.219031e-002 -5.000000e-001
      vertex  -5.008439e-002 -1.219031e-002 -5.000000e-001
      vertex  -5.804453e-002 -1.016334e-002 -5.000000e-001
    endloop
  endfacet
  facet normal 0.000000e+000 0.000000e+000 -1.000000e+000
    outer loop
      vertex  -5.008439e-002 1.219031e-002 -5.000000e-001
      vertex  -5.804453e-002 -1.016334e-002 -5.000000e-001
      vertex  -5.804453e-002 1.016334e-002 -5.000000e-001
    endloop
  endfacet
  facet normal 0.000000e+000 -0.000000e+000 -1.000000e+000
    outer loop
      vertex  -5.804453e-002 1.016334e-002 -5.000000e-001
      vertex  -5.804453e-002 -1.016334e-002 -5.000000e-001
      vertex  -6.286309e-002 -8.156820e-003 -5.000000e-001
    endloop
  endfacet
  facet normal 0.000000e+000 0.000000e+000 -1.000000e+000
    outer loop
      vertex  -5.804453e-002 1.016334e-002 -5.000000e-001
      vertex  -6.286309e-002 -8.156820e-003 -5.000000e-001
      vertex  -6.568789e-002 -6.420552e-003 -5.000000e-001
    endloop
  endfacet
  facet normal 0.000000e+000 0.000000e+000 -1.000000e+000
    outer loop
      vertex  -6.568789e-002 -6.420552e-003 -5.000000e-001
      vertex  -6.731979e-002 -5.012943e-003 -5.000000e-001
      vertex  -5.804453e-002 1.016334e-002 -5.000000e-001
    endloop
  endfacet
  facet normal 0.000000e+000 0.000000e+000 -1.000000e+000
    outer loop
      vertex  -5.804453e-002 1.016334e-002 -5.000000e-001
      vertex  -6.731979e-002 -5.012943e-003 -5.000000e-001
      vertex  -6.833605e-002 -3.801698e-003 -5.000000e-001
    endloop
  endfacet
  facet normal 0.000000e+000 0.000000e+000 -1.000000e+000
    outer loop
      vertex  -5.804453e-002 1.016334e-002 -5.000000e-001
      vertex  -6.833605e-002 -3.801698e-003 -5.000000e-001
      vertex  -6.891102e-002 -2.852106e-003 -5.000000e-001
    endloop
  endfacet
  facet normal 0.000000e+000 0.000000e+000 -1.000000e+000
    outer loop
      vertex  -6.891102e-002 -2.852106e-003 -5.000000e-001
      vertex  -6.930397e-002 -1.914139e-003 -5.000000e-001
      vertex  -5.804453e-002 1.016334e-002 -5.000000e-001
    endloop
  endfacet
  facet normal 0.000000e+000 0.000000e+000 -1.000000e+000
    outer loop
      vertex  -5.804453e-002 1.016334e-002 -5.000000e-001
      vertex  -6.930397e-002 -1.914139e-003 -5.000000e-001
      vertex  -6.954000e-002 -9.440462e-004 -5.000000e-001
    endloop
  endfacet
  facet normal 0.000000e+000 0.000000e+000 -1.000000e+000
    outer loop
      vertex  -5.804453e-002 1.016334e-002 -5.000000e-001
      vertex  -6.954000e-002 -9.440462e-004 -5.000000e-001
      vertex  -6.961383e-002 1.542653e-015 -5.000000e-001
    endloop
  endfacet
  facet normal 0.000000e+000 0.000000e+000 -1.000000e+000
    outer loop
      vertex  -6.961383e-002 1.542653e-015 -5.000000e-001
      vertex  -6.954000e-002 9.440462e-004 -5.000000e-001
      vertex  -5.804453e-002 1.016334e-002 -5.000000e-001
    endloop
  endfacet
  facet normal 0.000000e+000 0.000000e+000 -1.000000e+000
    outer loop
      vertex  -5.804453e-002 1.016334e-002 -5.000000e-001
      vertex  -6.954000e-002 9.440462e-004 -5.000000e-001
      vertex  -6.930397e-002 1.914139e-003 -5.000000e-001
    endloop
  endfacet
  facet normal 0.000000e+000 0.000000e+000 -1.000000e+000
    outer loop
      vertex  -5.804453e-002 1.016334e-002 -5.000000e-001
      vertex  -6.930397e-002 1.914139e-003 -5.000000e-001
      vertex  -6.891102e-002 2.852106e-003 -5.000000e-001
    endloop
  endfacet
  facet normal 0.000000e+000 -0.000000e+000 -1.000000e+000
    outer loop
      vertex  -6.731979e-002 5.012943e-003 -5.000000e-001
      vertex  -6.568789e-002 6.420552e-003 -5.000000e-001
      vertex  -6.833605e-002 3.801698e-003 -5.000000e-001
    endloop
  endfacet
  facet normal 0.000000e+000 0.000000e+000 -1.000000e+000
    outer loop
      vertex  -6.833605e-002 3.801698e-003 -5.000000e-001
      vertex  -6.568789e-002 6.420552e-003 -5.000000e-001
      vertex  -6.286309e-002 8.156820e-003 -5.000000e-001
    endloop
  endfacet
  facet normal 0.000000e+000 0.000000e+000 -1.000000e+000
    outer loop
      vertex  -6.833605e-002 3.801698e-003 -5.000000e-001
      vertex  -6.286309e-002 8.156820e-003 -5.000000e-001
      vertex  -5.804453e-002 1.016334e-002 -5.000000e-001
    endloop
  endfacet
  facet normal 3.066848e-001 -9.518111e-001 0.000000e+000
    outer loop
      vertex  6.922054e-002 -4.948797e-004 5.000000e-001
      vertex  6.922054e-002 -4.948797e-004 -5.000000e-001
      vertex  6.930162e-002 -4.687557e-004 -5.000000e-001
    endloop
  endfacet
  facet normal 3.066848e-001 -9.518111e-001 0.000000e+000
    outer loop
      vertex  6.922054e-002 -4.948797e-004 5.000000e-001
      vertex  6.930162e-002 -4.687557e-004 -5.000000e-001
      vertex  6.930162e-002 -4.687557e-004 5.000000e-001
    endloop
  endfacet
  facet normal 4.614178e-001 -8.871830e-001 0.000000e+000
    outer loop
      vertex  6.930162e-002 -4.687557e-004 5.000000e-001
      vertex  6.930162e-002 -4.687557e-004 -5.000000e-001
      vertex  6.937719e-002 -4.294516e-004 -5.000000e-001
    endloop
  endfacet
  facet normal 4.614178e-001 -8.871830e-001 0.000000e+000
    outer loop
      vertex  6.930162e-002 -4.687557e-004 5.000000e-001
      vertex  6.937719e-002 -4.294516e-004 -5.000000e-001
      vertex  6.937719e-002 -4.294516e-004 5.000000e-001
    endloop
  endfacet
  facet normal 6.031705e-001 -7.976122e-001 0.000000e+000
    outer loop
      vertex  6.937719e-002 -4.294516e-004 5.000000e-001
      vertex  6.937719e-002 -4.294516e-004 -5.000000e-001
      vertex  6.944513e-002 -3.780726e-004 -5.000000e-001
    endloop
  endfacet
  facet normal 6.031705e-001 -7.976122e-001 0.000000e+000
    outer loop
      vertex  6.937719e-002 -4.294516e-004 5.000000e-001
      vertex  6.944513e-002 -3.780726e-004 -5.000000e-001
      vertex  6.944513e-002 -3.780726e-004 5.000000e-001
    endloop
  endfacet
  facet normal 7.279457e-001 -6.856347e-001 0.000000e+000
    outer loop
      vertex  6.944513e-002 -3.780726e-004 5.000000e-001
      vertex  6.944513e-002 -3.780726e-004 -5.000000e-001
      vertex  6.950354e-002 -3.160633e-004 -5.000000e-001
    endloop
  endfacet
  facet normal 7.279457e-001 -6.856347e-001 0.000000e+000
    outer loop
      vertex  6.944513e-002 -3.780726e-004 5.000000e-001
      vertex  6.950354e-002 -3.160633e-004 -5.000000e-001
      vertex  6.950354e-002 -3.160633e-004 5.000000e-001
    endloop
  endfacet
  facet normal 8.323194e-001 -5.542964e-001 0.000000e+000
    outer loop
      vertex  6.950354e-002 -3.160633e-004 5.000000e-001
      vertex  6.950354e-002 -3.160633e-004 -5.000000e-001
      vertex  6.955075e-002 -2.451673e-004 -5.000000e-001
    endloop
  endfacet
  facet normal 8.323194e-001 -5.542964e-001 0.000000e+000
    outer loop
      vertex  6.950354e-002 -3.160633e-004 5.000000e-001
      vertex  6.955075e-002 -2.451673e-004 -5.000000e-001
      vertex  6.955075e-002 -2.451673e-004 5.000000e-001
    endloop
  endfacet
  facet normal 9.132366e-001 -4.074296e-001 0.000000e+000
    outer loop
      vertex  6.955075e-002 -2.451673e-004 5.000000e-001
      vertex  6.955075e-002 -2.451673e-004 -5.000000e-001
      vertex  6.958546e-002 -1.673779e-004 -5.000000e-001
    endloop
  endfacet
  facet normal 9.132366e-001 -4.074296e-001 0.000000e+000
    outer loop
      vertex  6.955075e-002 -2.451673e-004 5.000000e-001
      vertex  6.958546e-002 -1.673779e-004 -5.000000e-001
      vertex  6.958546e-002 -1.673779e-004 5.000000e-001
    endloop
  endfacet
  facet normal 9.684335e-001 -2.492721e-001 0.000000e+000
    outer loop
      vertex  6.958546e-002 -1.673779e-004 5.000000e-001
      vertex  6.958546e-002 -1.673779e-004 -5.000000e-001
      vertex  6.960669e-002 -8.488225e-005 -5.000000e-001
    endloop
  endfacet
  facet normal 9.684335e-001 -2.492721e-001 0.000000e+000
    outer loop
      vertex  6.958546e-002 -1.673779e-004 5.000000e-001
      vertex  6.960669e-002 -8.488225e-005 -5.000000e-001
      vertex  6.960669e-002 -8.488225e-005 5.000000e-001
    endloop
  endfacet
  facet normal 9.964831e-001 -8.379318e-002 0.000000e+000
    outer loop
      vertex  6.960669e-002 -8.488225e-005 5.000000e-001
      vertex  6.960669e-002 -8.488225e-005 -5.000000e-001
      vertex  6.961383e-002 1.964874e-015 -5.000000e-001
    endloop
  endfacet
  facet normal 9.964831e-001 -8.379318e-002 0.000000e+000
    outer loop
      vertex  6.960669e-002 -8.488225e-005 5.000000e-001
      vertex  6.961383e-002 1.964874e-015 -5.000000e-001
      vertex  6.961383e-002 -1.520619e-015 5.000000e-001
    endloop
  endfacet
  facet normal 9.964831e-001 8.379318e-002 2.920605e-016
    outer loop
      vertex  6.961383e-002 -1.520619e-015 5.000000e-001
      vertex  6.961383e-002 1.964874e-015 -5.000000e-001
      vertex  6.960669e-002 8.488225e-005 -5.000000e-001
    endloop
  endfacet
  facet normal 9.964831e-001 8.379318e-002 0.000000e+000
    outer loop
      vertex  6.961383e-002 -1.520619e-015 5.000000e-001
      vertex  6.960669e-002 8.488225e-005 -5.000000e-001
      vertex  6.960669e-002 8.488225e-005 5.000000e-001
    endloop
  endfacet
  facet normal 9.684335e-001 2.492721e-001 0.000000e+000
    outer loop
      vertex  6.960669e-002 8.488225e-005 5.000000e-001
      vertex  6.960669e-002 8.488225e-005 -5.000000e-001
      vertex  6.958546e-002 1.673779e-004 -5.000000e-001
    endloop
  endfacet
  facet normal 9.684335e-001 2.492721e-001 0.000000e+000
    outer loop
      vertex  6.960669e-002 8.488225e-005 5.000000e-001
      vertex  6.958546e-002 1.673779e-004 -5.000000e-001
      vertex  6.958546e-002 1.673779e-004 5.000000e-001
    endloop
  endfacet
  facet normal 9.132366e-001 4.074296e-001 0.000000e+000
    outer loop
      vertex  6.958546e-002 1.673779e-004 5.000000e-001
      vertex  6.958546e-002 1.673779e-004 -5.000000e-001
      vertex  6.955075e-002 2.451673e-004 -5.000000e-001
    endloop
  endfacet
  facet normal 9.132366e-001 4.074296e-001 0.000000e+000
    outer loop
      vertex  6.958546e-002 1.673779e-004 5.000000e-001
      vertex  6.955075e-002 2.451673e-004 -5.000000e-001
      vertex  6.955075e-002 2.451673e-004 5.000000e-001
    endloop
  endfacet
  facet normal 8.323194e-001 5.542964e-001 0.000000e+000
    outer loop
      vertex  6.955075e-002 2.451673e-004 5.000000e-001
      vertex  6.955075e-002 2.451673e-004 -5.000000e-001
      vertex  6.950354e-002 3.160633e-004 -5.000000e-001
    endloop
  endfacet
  facet normal 8.323194e-001 5.542964e-001 0.000000e+000
    outer loop
      vertex  6.955075e-002 2.451673e-004 5.000000e-001
      vertex  6.950354e-002 3.160633e-004 -5.000000e-001
      vertex  6.950354e-002 3.160633e-004 5.000000e-001
    endloop
  endfacet
  facet normal 7.279457e-001 6.856347e-001 0.000000e+000
    outer loop
      vertex  6.950354e-002 3.160633e-004 5.000000e-001
      vertex  6.950354e-002 3.160633e-004 -5.000000e-001
      vertex  6.944513e-002 3.780726e-004 -5.000000e-001
    endloop
  endfacet
  facet normal 7.279457e-001 6.856347e-001 0.000000e+000
    outer loop
      vertex  6.950354e-002 3.160633e-004 5.000000e-001
      vertex  6.944513e-002 3.780726e-004 -5.000000e-001
      vertex  6.944513e-002 3.780726e-004 5.000000e-001
    endloop
  endfacet
  facet normal 6.031705e-001 7.976122e-001 0.000000e+000
    outer loop
      vertex  6.944513e-002 3.780726e-004 5.000000e-001
      vertex  6.944513e-002 3.780726e-004 -5.000000e-001
      vertex  6.937719e-002 4.294516e-004 -5.000000e-001
    endloop
  endfacet
  facet normal 6.031705e-001 7.976122e-001 0.000000e+000
    outer loop
      vertex  6.944513e-002 3.780726e-004 5.000000e-001
      vertex  6.937719e-002 4.294516e-004 -5.000000e-001
      vertex  6.937719e-002 4.294516e-004 5.000000e-001
    endloop
  endfacet
  facet normal 4.614178e-001 8.871830e-001 0.000000e+000
    outer loop
      vertex  6.937719e-002 4.294516e-004 5.000000e-001
      vertex  6.937719e-002 4.294516e-004 -5.000000e-001
      vertex  6.930162e-002 4.687557e-004 -5.000000e-001
    endloop
  endfacet
  facet normal 4.614178e-001 8.871830e-001 0.000000e+000
    outer loop
      vertex  6.937719e-002 4.294516e-004 5.000000e-001
      vertex  6.930162e-002 4.687557e-004 -5.000000e-001
      vertex  6.930162e-002 4.687557e-004 5.000000e-001
    endloop
  endfacet
  facet normal 3.066848e-001 9.518111e-001 0.000000e+000
    outer loop
      vertex  6.930162e-002 4.687557e-004 5.000000e-001
      vertex  6.930162e-002 4.687557e-004 -5.000000e-001
      vertex  6.922054e-002 4.948797e-004 -5.000000e-001
    endloop
  endfacet
  facet normal 3.066848e-001 9.518111e-001 0.000000e+000
    outer loop
      vertex  6.930162e-002 4.687557e-004 5.000000e-001
      vertex  6.922054e-002 4.948797e-004 -5.000000e-001
      vertex  6.922054e-002 4.948797e-004 5.000000e-001
    endloop
  endfacet
endsolid vcg
